<svg width="576" height="303" viewBox="0 0 576 303" fill="none" xmlns="http://www.w3.org/2000/svg">
<mask id="mask0_9_800" style="mask-type:luminance" maskUnits="userSpaceOnUse" x="0" y="18" width="285" height="285">
<path d="M142.701 302.541C221.128 302.541 284.705 238.964 284.705 160.537C284.705 82.1101 221.128 18.5326 142.701 18.5326C64.2742 18.5326 0.696777 82.1101 0.696777 160.537C0.696777 238.964 64.2742 302.541 142.701 302.541Z" fill="white"/>
</mask>
<g mask="url(#mask0_9_800)">
<path d="M-36.6924 72.1252L332.285 -40.4437" stroke="#53301A" stroke-width="0.25" stroke-miterlimit="10"/>
</g>
<mask id="mask1_9_800" style="mask-type:luminance" maskUnits="userSpaceOnUse" x="0" y="18" width="285" height="285">
<path d="M142.701 302.541C221.128 302.541 284.705 238.964 284.705 160.537C284.705 82.1101 221.128 18.5326 142.701 18.5326C64.2742 18.5326 0.696777 82.1101 0.696777 160.537C0.696777 238.964 64.2742 302.541 142.701 302.541Z" fill="white"/>
</mask>
<g mask="url(#mask1_9_800)">
<path d="M-36.6924 84.4901L332.285 -28.0788" stroke="#53301A" stroke-width="0.25" stroke-miterlimit="10"/>
</g>
<mask id="mask2_9_800" style="mask-type:luminance" maskUnits="userSpaceOnUse" x="0" y="18" width="285" height="285">
<path d="M142.701 302.541C221.128 302.541 284.705 238.964 284.705 160.537C284.705 82.1101 221.128 18.5326 142.701 18.5326C64.2742 18.5326 0.696777 82.1101 0.696777 160.537C0.696777 238.964 64.2742 302.541 142.701 302.541Z" fill="white"/>
</mask>
<g mask="url(#mask2_9_800)">
<path d="M-36.6924 96.8551L332.285 -15.7138" stroke="#53301A" stroke-width="0.25" stroke-miterlimit="10"/>
</g>
<mask id="mask3_9_800" style="mask-type:luminance" maskUnits="userSpaceOnUse" x="0" y="18" width="285" height="285">
<path d="M142.701 302.541C221.128 302.541 284.705 238.964 284.705 160.537C284.705 82.1101 221.128 18.5326 142.701 18.5326C64.2742 18.5326 0.696777 82.1101 0.696777 160.537C0.696777 238.964 64.2742 302.541 142.701 302.541Z" fill="white"/>
</mask>
<g mask="url(#mask3_9_800)">
<path d="M-36.6924 109.222L332.285 -3.347" stroke="#53301A" stroke-width="0.25" stroke-miterlimit="10"/>
</g>
<mask id="mask4_9_800" style="mask-type:luminance" maskUnits="userSpaceOnUse" x="0" y="18" width="285" height="285">
<path d="M142.701 302.541C221.128 302.541 284.705 238.964 284.705 160.537C284.705 82.1101 221.128 18.5326 142.701 18.5326C64.2742 18.5326 0.696777 82.1101 0.696777 160.537C0.696777 238.964 64.2742 302.541 142.701 302.541Z" fill="white"/>
</mask>
<g mask="url(#mask4_9_800)">
<path d="M-36.6924 121.587L332.285 9.01794" stroke="#53301A" stroke-width="0.25" stroke-miterlimit="10"/>
</g>
<mask id="mask5_9_800" style="mask-type:luminance" maskUnits="userSpaceOnUse" x="0" y="18" width="285" height="285">
<path d="M142.701 302.541C221.128 302.541 284.705 238.964 284.705 160.537C284.705 82.1101 221.128 18.5326 142.701 18.5326C64.2742 18.5326 0.696777 82.1101 0.696777 160.537C0.696777 238.964 64.2742 302.541 142.701 302.541Z" fill="white"/>
</mask>
<g mask="url(#mask5_9_800)">
<path d="M-36.6924 133.952L332.285 21.3829" stroke="#53301A" stroke-width="0.25" stroke-miterlimit="10"/>
</g>
<mask id="mask6_9_800" style="mask-type:luminance" maskUnits="userSpaceOnUse" x="0" y="18" width="285" height="285">
<path d="M142.701 302.541C221.128 302.541 284.705 238.964 284.705 160.537C284.705 82.1101 221.128 18.5326 142.701 18.5326C64.2742 18.5326 0.696777 82.1101 0.696777 160.537C0.696777 238.964 64.2742 302.541 142.701 302.541Z" fill="white"/>
</mask>
<g mask="url(#mask6_9_800)">
<path d="M-36.6924 146.317L332.285 33.7478" stroke="#53301A" stroke-width="0.25" stroke-miterlimit="10"/>
</g>
<mask id="mask7_9_800" style="mask-type:luminance" maskUnits="userSpaceOnUse" x="0" y="18" width="285" height="285">
<path d="M142.701 302.541C221.128 302.541 284.705 238.964 284.705 160.537C284.705 82.1101 221.128 18.5326 142.701 18.5326C64.2742 18.5326 0.696777 82.1101 0.696777 160.537C0.696777 238.964 64.2742 302.541 142.701 302.541Z" fill="white"/>
</mask>
<g mask="url(#mask7_9_800)">
<path d="M-36.6924 158.684L332.285 46.1147" stroke="#53301A" stroke-width="0.25" stroke-miterlimit="10"/>
</g>
<mask id="mask8_9_800" style="mask-type:luminance" maskUnits="userSpaceOnUse" x="0" y="18" width="285" height="285">
<path d="M142.701 302.541C221.128 302.541 284.705 238.964 284.705 160.537C284.705 82.1101 221.128 18.5326 142.701 18.5326C64.2742 18.5326 0.696777 82.1101 0.696777 160.537C0.696777 238.964 64.2742 302.541 142.701 302.541Z" fill="white"/>
</mask>
<g mask="url(#mask8_9_800)">
<path d="M-36.6924 171.049L332.285 58.4796" stroke="#53301A" stroke-width="0.25" stroke-miterlimit="10"/>
</g>
<mask id="mask9_9_800" style="mask-type:luminance" maskUnits="userSpaceOnUse" x="0" y="18" width="285" height="285">
<path d="M142.701 302.541C221.128 302.541 284.705 238.964 284.705 160.537C284.705 82.1101 221.128 18.5326 142.701 18.5326C64.2742 18.5326 0.696777 82.1101 0.696777 160.537C0.696777 238.964 64.2742 302.541 142.701 302.541Z" fill="white"/>
</mask>
<g mask="url(#mask9_9_800)">
<path d="M-36.6924 183.414L332.285 70.8446" stroke="#53301A" stroke-width="0.25" stroke-miterlimit="10"/>
</g>
<mask id="mask10_9_800" style="mask-type:luminance" maskUnits="userSpaceOnUse" x="0" y="18" width="285" height="285">
<path d="M142.701 302.541C221.128 302.541 284.705 238.964 284.705 160.537C284.705 82.1101 221.128 18.5326 142.701 18.5326C64.2742 18.5326 0.696777 82.1101 0.696777 160.537C0.696777 238.964 64.2742 302.541 142.701 302.541Z" fill="white"/>
</mask>
<g mask="url(#mask10_9_800)">
<path d="M-36.6924 195.778L332.285 83.2114" stroke="#53301A" stroke-width="0.25" stroke-miterlimit="10"/>
</g>
<mask id="mask11_9_800" style="mask-type:luminance" maskUnits="userSpaceOnUse" x="0" y="18" width="285" height="285">
<path d="M142.701 302.541C221.128 302.541 284.705 238.964 284.705 160.537C284.705 82.1101 221.128 18.5326 142.701 18.5326C64.2742 18.5326 0.696777 82.1101 0.696777 160.537C0.696777 238.964 64.2742 302.541 142.701 302.541Z" fill="white"/>
</mask>
<g mask="url(#mask11_9_800)">
<path d="M-36.6924 208.145L332.285 95.5764" stroke="#53301A" stroke-width="0.25" stroke-miterlimit="10"/>
</g>
<mask id="mask12_9_800" style="mask-type:luminance" maskUnits="userSpaceOnUse" x="0" y="18" width="285" height="285">
<path d="M142.701 302.541C221.128 302.541 284.705 238.964 284.705 160.537C284.705 82.1101 221.128 18.5326 142.701 18.5326C64.2742 18.5326 0.696777 82.1101 0.696777 160.537C0.696777 238.964 64.2742 302.541 142.701 302.541Z" fill="white"/>
</mask>
<g mask="url(#mask12_9_800)">
<path d="M-36.6924 220.51L332.285 107.941" stroke="#53301A" stroke-width="0.25" stroke-miterlimit="10"/>
</g>
<mask id="mask13_9_800" style="mask-type:luminance" maskUnits="userSpaceOnUse" x="0" y="18" width="285" height="285">
<path d="M142.701 302.541C221.128 302.541 284.705 238.964 284.705 160.537C284.705 82.1101 221.128 18.5326 142.701 18.5326C64.2742 18.5326 0.696777 82.1101 0.696777 160.537C0.696777 238.964 64.2742 302.541 142.701 302.541Z" fill="white"/>
</mask>
<g mask="url(#mask13_9_800)">
<path d="M-36.6924 232.875L332.285 120.306" stroke="#53301A" stroke-width="0.25" stroke-miterlimit="10"/>
</g>
<mask id="mask14_9_800" style="mask-type:luminance" maskUnits="userSpaceOnUse" x="0" y="18" width="285" height="285">
<path d="M142.701 302.541C221.128 302.541 284.705 238.964 284.705 160.537C284.705 82.1101 221.128 18.5326 142.701 18.5326C64.2742 18.5326 0.696777 82.1101 0.696777 160.537C0.696777 238.964 64.2742 302.541 142.701 302.541Z" fill="white"/>
</mask>
<g mask="url(#mask14_9_800)">
<path d="M-36.6924 245.242L332.285 132.673" stroke="#53301A" stroke-width="0.25" stroke-miterlimit="10"/>
</g>
<mask id="mask15_9_800" style="mask-type:luminance" maskUnits="userSpaceOnUse" x="0" y="18" width="285" height="285">
<path d="M142.701 302.541C221.128 302.541 284.705 238.964 284.705 160.537C284.705 82.1101 221.128 18.5326 142.701 18.5326C64.2742 18.5326 0.696777 82.1101 0.696777 160.537C0.696777 238.964 64.2742 302.541 142.701 302.541Z" fill="white"/>
</mask>
<g mask="url(#mask15_9_800)">
<path d="M-36.6924 257.607L332.285 145.038" stroke="#53301A" stroke-width="0.25" stroke-miterlimit="10"/>
</g>
<mask id="mask16_9_800" style="mask-type:luminance" maskUnits="userSpaceOnUse" x="0" y="18" width="285" height="285">
<path d="M142.701 302.541C221.128 302.541 284.705 238.964 284.705 160.537C284.705 82.1101 221.128 18.5326 142.701 18.5326C64.2742 18.5326 0.696777 82.1101 0.696777 160.537C0.696777 238.964 64.2742 302.541 142.701 302.541Z" fill="white"/>
</mask>
<g mask="url(#mask16_9_800)">
<path d="M-36.6924 269.972L332.285 157.403" stroke="#53301A" stroke-width="0.25" stroke-miterlimit="10"/>
</g>
<mask id="mask17_9_800" style="mask-type:luminance" maskUnits="userSpaceOnUse" x="0" y="18" width="285" height="285">
<path d="M142.701 302.541C221.128 302.541 284.705 238.964 284.705 160.537C284.705 82.1101 221.128 18.5326 142.701 18.5326C64.2742 18.5326 0.696777 82.1101 0.696777 160.537C0.696777 238.964 64.2742 302.541 142.701 302.541Z" fill="white"/>
</mask>
<g mask="url(#mask17_9_800)">
<path d="M-36.6924 282.339L332.285 169.768" stroke="#53301A" stroke-width="0.25" stroke-miterlimit="10"/>
</g>
<mask id="mask18_9_800" style="mask-type:luminance" maskUnits="userSpaceOnUse" x="0" y="18" width="285" height="285">
<path d="M142.701 302.541C221.128 302.541 284.705 238.964 284.705 160.537C284.705 82.1101 221.128 18.5326 142.701 18.5326C64.2742 18.5326 0.696777 82.1101 0.696777 160.537C0.696777 238.964 64.2742 302.541 142.701 302.541Z" fill="white"/>
</mask>
<g mask="url(#mask18_9_800)">
<path d="M-36.6924 294.704L332.285 182.135" stroke="#53301A" stroke-width="0.25" stroke-miterlimit="10"/>
</g>
<mask id="mask19_9_800" style="mask-type:luminance" maskUnits="userSpaceOnUse" x="0" y="18" width="285" height="285">
<path d="M142.701 302.541C221.128 302.541 284.705 238.964 284.705 160.537C284.705 82.1101 221.128 18.5326 142.701 18.5326C64.2742 18.5326 0.696777 82.1101 0.696777 160.537C0.696777 238.964 64.2742 302.541 142.701 302.541Z" fill="white"/>
</mask>
<g mask="url(#mask19_9_800)">
<path d="M-36.6924 307.069L332.285 194.5" stroke="#53301A" stroke-width="0.25" stroke-miterlimit="10"/>
</g>
<mask id="mask20_9_800" style="mask-type:luminance" maskUnits="userSpaceOnUse" x="0" y="18" width="285" height="285">
<path d="M142.701 302.541C221.128 302.541 284.705 238.964 284.705 160.537C284.705 82.1101 221.128 18.5326 142.701 18.5326C64.2742 18.5326 0.696777 82.1101 0.696777 160.537C0.696777 238.964 64.2742 302.541 142.701 302.541Z" fill="white"/>
</mask>
<g mask="url(#mask20_9_800)">
<path d="M-36.6924 319.434L332.285 206.865" stroke="#53301A" stroke-width="0.25" stroke-miterlimit="10"/>
</g>
<mask id="mask21_9_800" style="mask-type:luminance" maskUnits="userSpaceOnUse" x="0" y="18" width="285" height="285">
<path d="M142.701 302.541C221.128 302.541 284.705 238.964 284.705 160.537C284.705 82.1101 221.128 18.5326 142.701 18.5326C64.2742 18.5326 0.696777 82.1101 0.696777 160.537C0.696777 238.964 64.2742 302.541 142.701 302.541Z" fill="white"/>
</mask>
<g mask="url(#mask21_9_800)">
<path d="M-36.6924 331.8L332.285 219.232" stroke="#53301A" stroke-width="0.25" stroke-miterlimit="10"/>
</g>
<mask id="mask22_9_800" style="mask-type:luminance" maskUnits="userSpaceOnUse" x="0" y="18" width="285" height="285">
<path d="M142.701 302.541C221.128 302.541 284.705 238.964 284.705 160.537C284.705 82.1101 221.128 18.5326 142.701 18.5326C64.2742 18.5326 0.696777 82.1101 0.696777 160.537C0.696777 238.964 64.2742 302.541 142.701 302.541Z" fill="white"/>
</mask>
<g mask="url(#mask22_9_800)">
<path d="M-36.6924 344.165L332.285 231.596" stroke="#53301A" stroke-width="0.25" stroke-miterlimit="10"/>
</g>
<mask id="mask23_9_800" style="mask-type:luminance" maskUnits="userSpaceOnUse" x="0" y="18" width="285" height="285">
<path d="M142.701 302.541C221.128 302.541 284.705 238.964 284.705 160.537C284.705 82.1101 221.128 18.5326 142.701 18.5326C64.2742 18.5326 0.696777 82.1101 0.696777 160.537C0.696777 238.964 64.2742 302.541 142.701 302.541Z" fill="white"/>
</mask>
<g mask="url(#mask23_9_800)">
<path d="M-36.6924 356.53L332.285 243.961" stroke="#53301A" stroke-width="0.25" stroke-miterlimit="10"/>
</g>
<mask id="mask24_9_800" style="mask-type:luminance" maskUnits="userSpaceOnUse" x="154" y="0" width="422" height="197">
<path d="M575.883 0H154.12V196.9H575.883V0Z" fill="white"/>
</mask>
<g mask="url(#mask24_9_800)">
<path d="M492.981 330.96C567.019 256.921 567.019 136.881 492.98 62.8416C418.942 -11.1974 298.901 -11.1974 224.862 62.8415C150.823 136.881 150.823 256.921 224.862 330.96C298.901 404.999 418.942 404.999 492.981 330.96Z" stroke="#76857E" stroke-width="2" stroke-miterlimit="10"/>
<path d="M483.254 321.234C551.922 252.567 551.922 141.235 483.254 72.5676C414.587 3.90024 303.255 3.90022 234.588 72.5676C165.92 141.235 165.92 252.567 234.588 321.234C303.255 389.902 414.587 389.902 483.254 321.234Z" stroke="#76857E" stroke-width="2" stroke-miterlimit="10"/>
<path d="M358.927 358.982C448.443 358.982 521.01 286.415 521.01 196.9C521.01 107.384 448.443 34.8172 358.927 34.8172C269.412 34.8172 196.845 107.384 196.845 196.9C196.845 286.415 269.412 358.982 358.927 358.982Z" stroke="#76857E" stroke-width="2" stroke-miterlimit="10"/>
<path d="M505.437 220.096C518.241 139.183 463.028 63.2107 382.116 50.4066C301.204 37.6025 225.231 92.8152 212.427 173.728C199.623 254.64 254.836 330.613 335.748 343.417C416.661 356.221 492.633 301.008 505.437 220.096Z" stroke="#76857E" stroke-width="2" stroke-miterlimit="10"/>
<path d="M492.019 216.801C503.011 143.294 452.334 74.7936 378.827 63.801C305.32 52.8084 236.819 103.486 225.827 176.993C214.834 250.5 265.512 319.001 339.019 329.993C412.526 340.986 481.026 290.308 492.019 216.801Z" stroke="#76857E" stroke-width="2" stroke-miterlimit="10"/>
<path d="M478.257 215.871C488.734 149.97 443.803 88.0531 377.901 77.5767C312 67.1002 250.083 112.031 239.607 177.932C229.131 243.834 274.061 305.75 339.963 316.227C405.864 326.703 467.781 281.772 478.257 215.871Z" stroke="#76857E" stroke-width="2" stroke-miterlimit="10"/>
<path d="M464.617 213.747C473.918 155.354 434.121 100.476 375.728 91.175C317.335 81.8735 262.458 121.67 253.156 180.063C243.855 238.456 283.651 293.334 342.045 302.635C400.438 311.937 455.315 272.14 464.617 213.747Z" stroke="#76857E" stroke-width="2" stroke-miterlimit="10"/>
<path d="M447.644 225.823C463.605 176.822 436.821 124.16 387.82 108.199C338.819 92.238 286.157 119.022 270.196 168.023C254.235 217.024 281.019 269.687 330.02 285.648C379.021 301.608 431.683 274.824 447.644 225.823Z" stroke="#76857E" stroke-width="2" stroke-miterlimit="10"/>
<path d="M436.43 214.859C446.343 172.052 419.677 129.313 376.87 119.4C334.062 109.487 291.324 136.153 281.411 178.961C271.498 221.768 298.164 264.506 340.971 274.42C383.778 284.333 426.517 257.667 436.43 214.859Z" stroke="#76857E" stroke-width="2" stroke-miterlimit="10"/>
<path d="M423.043 211.766C431.268 176.361 409.235 140.993 373.831 132.768C338.427 124.543 303.059 146.576 294.834 181.98C286.609 217.384 308.642 252.753 344.046 260.978C379.45 269.203 414.818 247.17 423.043 211.766Z" stroke="#76857E" stroke-width="2" stroke-miterlimit="10"/>
<path d="M409.617 208.704C416.143 180.704 398.736 152.716 370.736 146.189C342.737 139.663 314.748 157.071 308.222 185.07C301.696 213.07 319.103 241.058 347.103 247.585C375.102 254.111 403.091 236.703 409.617 208.704Z" stroke="#76857E" stroke-width="2" stroke-miterlimit="10"/>
<path d="M396.712 203.077C400.122 182.201 385.962 162.513 365.085 159.103C344.208 155.693 324.519 169.852 321.109 190.728C317.699 211.604 331.859 231.292 352.736 234.702C373.614 238.112 393.302 223.953 396.712 203.077Z" stroke="#76857E" stroke-width="2" stroke-miterlimit="10"/>
<path d="M397.466 206.122C402.541 184.836 389.399 163.467 368.113 158.392C346.828 153.318 325.458 166.459 320.384 187.745C315.309 209.03 328.451 230.4 349.736 235.474C371.022 240.549 392.391 227.407 397.466 206.122Z" fill="#76857E"/>
<path d="M374.406 234.809C395.344 226.271 405.397 202.375 396.859 181.437C388.32 160.498 364.425 150.446 343.486 158.984C322.548 167.522 312.495 191.418 321.034 212.356C329.572 233.295 353.467 243.347 374.406 234.809Z" fill="#76857E"/>
<path d="M400.622 203.707C404.387 180.672 388.765 158.945 365.729 155.18C342.694 151.415 320.967 167.037 317.202 190.073C313.437 213.109 329.059 234.835 352.095 238.6C375.131 242.365 396.857 226.743 400.622 203.707Z" fill="#76857E"/>
<path d="M401.962 203.944C405.846 180.189 389.739 157.782 365.984 153.897C342.229 150.012 319.822 166.12 315.937 189.875C312.052 213.63 328.16 236.037 351.915 239.922C375.67 243.807 398.077 227.699 401.962 203.944Z" fill="#76857E"/>
<path d="M402.636 207.329C408.394 183.206 393.507 158.982 369.384 153.223C345.261 147.465 321.037 162.352 315.278 186.475C309.52 210.598 324.407 234.822 348.53 240.581C372.653 246.339 396.877 231.452 402.636 207.329Z" fill="#76857E"/>
<path d="M376.317 239.712C399.961 230.09 411.329 203.123 401.707 179.478C392.086 155.833 365.118 144.465 341.473 154.087C317.828 163.709 306.46 190.677 316.082 214.321C325.704 237.966 352.672 249.334 376.317 239.712Z" fill="#76857E"/>
<path d="M405.537 206.389C410.778 180.659 394.168 155.551 368.437 150.31C342.706 145.068 317.598 161.678 312.357 187.409C307.116 213.14 323.726 238.248 349.457 243.489C375.188 248.73 400.296 232.12 405.537 206.389Z" fill="#76857E"/>
<path d="M407.159 204.773C411.517 178.139 393.459 153.015 366.826 148.657C340.192 144.298 315.068 162.356 310.709 188.99C306.351 215.624 324.408 240.748 351.042 245.106C377.676 249.465 402.8 231.407 407.159 204.773Z" fill="#76857E"/>
<path d="M406.581 212.572C415.253 186.246 400.943 157.875 374.617 149.202C348.291 140.529 319.919 154.84 311.247 181.166C302.574 207.491 316.885 235.863 343.21 244.536C369.536 253.209 397.908 238.898 406.581 212.572Z" fill="#76857E"/>
<path d="M381.129 243.379C406.795 231.116 417.661 200.368 405.398 174.702C393.135 149.035 362.387 138.169 336.72 150.432C311.054 162.695 300.188 193.443 312.451 219.11C324.714 244.777 355.462 255.642 381.129 243.379Z" fill="#76857E"/>
<path d="M358.927 249.727C388.103 249.727 411.754 226.075 411.754 196.9C411.754 167.724 388.103 144.073 358.927 144.073C329.752 144.073 306.1 167.724 306.1 196.9C306.1 226.075 329.752 249.727 358.927 249.727Z" fill="#76857E"/>
</g>
</svg>
