<svg width="229" height="254" viewBox="0 0 229 254" fill="none" xmlns="http://www.w3.org/2000/svg">
<path d="M165.905 179.378C175.29 138.257 149.563 97.3138 108.442 87.9288C67.3211 78.5438 26.378 104.271 16.993 145.392C7.60802 186.513 33.3351 227.456 74.456 236.841C115.577 246.226 156.52 220.499 165.905 179.378Z" fill="#76857E"/>
<path d="M131.761 184.675H157.71" stroke="#53301A" stroke-width="2" stroke-miterlimit="10"/>
<path d="M180.021 136.415V162.364" stroke="#53301A" stroke-width="2" stroke-miterlimit="10"/>
<path d="M180.021 206.986V232.936" stroke="#53301A" stroke-width="2" stroke-miterlimit="10"/>
<path d="M145.896 150.55L164.245 168.899" stroke="#53301A" stroke-width="2" stroke-miterlimit="10"/>
<path d="M164.245 200.452L145.896 218.801" stroke="#53301A" stroke-width="2" stroke-miterlimit="10"/>
<path d="M135.25 166.658L159.323 176.346" stroke="#53301A" stroke-width="2" stroke-miterlimit="10"/>
<path d="M171.692 205.373L162.004 229.446" stroke="#53301A" stroke-width="2" stroke-miterlimit="10"/>
<path d="M161.104 140.277L171.275 164.15" stroke="#53301A" stroke-width="2" stroke-miterlimit="10"/>
<path d="M159.496 193.421L135.623 203.593" stroke="#53301A" stroke-width="2" stroke-miterlimit="10"/>
<path d="M132.795 174.737L158.188 180.081" stroke="#53301A" stroke-width="2" stroke-miterlimit="10"/>
<path d="M175.427 206.508L170.083 231.902" stroke="#53301A" stroke-width="2" stroke-miterlimit="10"/>
<path d="M153.655 144.254L167.832 165.988" stroke="#53301A" stroke-width="2" stroke-miterlimit="10"/>
<path d="M161.334 196.865L139.6 211.042" stroke="#53301A" stroke-width="2" stroke-miterlimit="10"/>
<path d="M139.92 157.824L161.482 172.262" stroke="#53301A" stroke-width="2" stroke-miterlimit="10"/>
<path d="M167.608 203.214L153.17 224.777" stroke="#53301A" stroke-width="2" stroke-miterlimit="10"/>
<path d="M170.652 137.333L175.69 162.788" stroke="#53301A" stroke-width="2" stroke-miterlimit="10"/>
<path d="M158.134 189.007L132.679 194.045" stroke="#53301A" stroke-width="2" stroke-miterlimit="10"/>
<path d="M228.208 184.675H202.258" stroke="#53301A" stroke-width="2" stroke-miterlimit="10"/>
<path d="M214.072 218.801L195.724 200.452" stroke="#53301A" stroke-width="2" stroke-miterlimit="10"/>
<path d="M195.724 168.899L214.072 150.55" stroke="#53301A" stroke-width="2" stroke-miterlimit="10"/>
<path d="M224.718 202.693L200.645 193.005" stroke="#53301A" stroke-width="2" stroke-miterlimit="10"/>
<path d="M188.277 163.977L197.965 139.904" stroke="#53301A" stroke-width="2" stroke-miterlimit="10"/>
<path d="M198.865 229.074L188.693 205.201" stroke="#53301A" stroke-width="2" stroke-miterlimit="10"/>
<path d="M200.473 175.929L224.345 165.757" stroke="#53301A" stroke-width="2" stroke-miterlimit="10"/>
<path d="M227.173 194.614L201.78 189.27" stroke="#53301A" stroke-width="2" stroke-miterlimit="10"/>
<path d="M184.542 162.842L189.885 137.449" stroke="#53301A" stroke-width="2" stroke-miterlimit="10"/>
<path d="M206.314 225.097L192.137 203.362" stroke="#53301A" stroke-width="2" stroke-miterlimit="10"/>
<path d="M198.634 172.486L220.369 158.309" stroke="#53301A" stroke-width="2" stroke-miterlimit="10"/>
<path d="M220.048 211.526L198.486 197.089" stroke="#53301A" stroke-width="2" stroke-miterlimit="10"/>
<path d="M192.361 166.136L206.798 144.574" stroke="#53301A" stroke-width="2" stroke-miterlimit="10"/>
<path d="M189.316 232.018L184.278 206.562" stroke="#53301A" stroke-width="2" stroke-miterlimit="10"/>
<path d="M201.834 180.344L227.289 175.306" stroke="#53301A" stroke-width="2" stroke-miterlimit="10"/>
<path d="M22.3437 225.725L7.82666 214.172" stroke="#76857E" stroke-opacity="0.5" stroke-width="0.5" stroke-miterlimit="10"/>
<path d="M22.3437 219.949L7.82666 208.396" stroke="#76857E" stroke-opacity="0.5" stroke-width="0.5" stroke-miterlimit="10"/>
<path d="M22.3437 214.172L7.82666 202.619" stroke="#76857E" stroke-opacity="0.5" stroke-width="0.5" stroke-miterlimit="10"/>
<path d="M22.3437 208.396L7.82666 196.843" stroke="#76857E" stroke-opacity="0.5" stroke-width="0.5" stroke-miterlimit="10"/>
<path d="M22.3437 202.619L7.82666 191.067" stroke="#76857E" stroke-opacity="0.5" stroke-width="0.5" stroke-miterlimit="10"/>
<path d="M22.3437 196.843L7.82666 185.29" stroke="#76857E" stroke-opacity="0.5" stroke-width="0.5" stroke-miterlimit="10"/>
<path d="M22.3437 191.067L7.82666 179.514" stroke="#76857E" stroke-opacity="0.5" stroke-width="0.5" stroke-miterlimit="10"/>
<path d="M22.3437 185.29L7.82666 173.737" stroke="#76857E" stroke-opacity="0.5" stroke-width="0.5" stroke-miterlimit="10"/>
<path d="M22.3437 179.514L7.82666 167.961" stroke="#76857E" stroke-opacity="0.5" stroke-width="0.5" stroke-miterlimit="10"/>
<path d="M22.3437 173.737L7.82666 162.184" stroke="#76857E" stroke-opacity="0.5" stroke-width="0.5" stroke-miterlimit="10"/>
<path d="M22.3437 167.961L7.82666 156.408" stroke="#76857E" stroke-opacity="0.5" stroke-width="0.5" stroke-miterlimit="10"/>
<path d="M22.3437 162.184L7.82666 150.632" stroke="#76857E" stroke-opacity="0.5" stroke-width="0.5" stroke-miterlimit="10"/>
<path d="M22.3437 156.408L7.82666 144.855" stroke="#76857E" stroke-opacity="0.5" stroke-width="0.5" stroke-miterlimit="10"/>
<path d="M22.3437 150.632L7.82666 139.079" stroke="#76857E" stroke-opacity="0.5" stroke-width="0.5" stroke-miterlimit="10"/>
<path d="M22.3437 144.855L7.82666 133.302" stroke="#76857E" stroke-opacity="0.5" stroke-width="0.5" stroke-miterlimit="10"/>
<path d="M22.3437 139.079L7.82666 127.526" stroke="#76857E" stroke-opacity="0.5" stroke-width="0.5" stroke-miterlimit="10"/>
<path d="M22.3437 133.302L7.82666 121.75" stroke="#76857E" stroke-opacity="0.5" stroke-width="0.5" stroke-miterlimit="10"/>
<path d="M22.3437 127.526L7.82666 115.973" stroke="#76857E" stroke-opacity="0.5" stroke-width="0.5" stroke-miterlimit="10"/>
<path d="M22.3437 121.75L7.82666 110.197" stroke="#76857E" stroke-opacity="0.5" stroke-width="0.5" stroke-miterlimit="10"/>
<path d="M103.739 60.277H87.9834V44.521L103.739 60.277Z" fill="#76857E" fill-opacity="0.5"/>
<path d="M119.494 60.277H103.739V44.521L119.494 60.277Z" fill="#76857E" fill-opacity="0.5"/>
<path d="M135.25 60.277H119.495V44.521L135.25 60.277Z" fill="#76857E" fill-opacity="0.5"/>
<path d="M103.739 76.032H87.9834V60.277L103.739 76.032Z" fill="#76857E" fill-opacity="0.5"/>
<path d="M119.494 76.032H103.739V60.277L119.494 76.032Z" fill="#76857E" fill-opacity="0.5"/>
<path d="M135.25 76.032H119.495V60.277L135.25 76.032Z" fill="#76857E" fill-opacity="0.5"/>
<path d="M17.3706 32.28H9.72363V55.26H17.3706V32.28Z" fill="#D4AF78"/>
<path d="M25.0376 47.594V39.947L2.0576 39.947V47.594L25.0376 47.594Z" fill="#D4AF78"/>
<path d="M17.3706 0H9.72363V22.981H17.3706V0Z" fill="#D4AF78"/>
<path d="M25.0376 15.314V7.66699L2.0576 7.66699V15.314L25.0376 15.314Z" fill="#D4AF78"/>
<path d="M86.4033 153.511C83.0413 150.149 83.0413 144.698 86.4033 141.336L164.942 62.7969C168.304 59.4349 173.755 59.4349 177.117 62.7969C180.479 66.1589 180.479 71.6099 177.117 74.9719L98.5783 153.511C95.2163 156.873 89.7653 156.873 86.4033 153.511Z" stroke="#D4AF78" stroke-width="0.75" stroke-miterlimit="10"/>
</svg>
