<svg width="302" height="49" viewBox="0 0 302 49" fill="none" xmlns="http://www.w3.org/2000/svg">
<path d="M112 -0.000427246V48.8046" stroke="#76857E" stroke-opacity="0.08" stroke-miterlimit="10"/>
<path d="M123.447 -0.000427246V48.8046" stroke="#76857E" stroke-opacity="0.08" stroke-width="1.6875" stroke-miterlimit="10"/>
<path d="M134.894 -0.000427246V48.8046" stroke="#76857E" stroke-opacity="0.08" stroke-width="2.375" stroke-miterlimit="10"/>
<path d="M146.341 -0.000427246V48.8046" stroke="#76857E" stroke-opacity="0.08" stroke-width="3.0625" stroke-miterlimit="10"/>
<path d="M157.788 -0.000427246V48.8046" stroke="#76857E" stroke-opacity="0.08" stroke-width="3.75" stroke-miterlimit="10"/>
<path d="M169.235 -0.000427246V48.8046" stroke="#76857E" stroke-opacity="0.08" stroke-width="4.4375" stroke-miterlimit="10"/>
<path d="M180.682 -0.000427246V48.8046" stroke="#76857E" stroke-opacity="0.08" stroke-width="5.125" stroke-miterlimit="10"/>
<path d="M192.128 -0.000427246V48.8046" stroke="#76857E" stroke-opacity="0.08" stroke-width="5.8125" stroke-miterlimit="10"/>
<path d="M203.575 -0.000427246V48.8046" stroke="#76857E" stroke-opacity="0.08" stroke-width="6.5" stroke-miterlimit="10"/>
<path d="M215.022 -0.000427246V48.8046" stroke="#76857E" stroke-opacity="0.08" stroke-width="7.1875" stroke-miterlimit="10"/>
<path d="M226.469 -0.000427246V48.8046" stroke="#76857E" stroke-opacity="0.08" stroke-width="7.875" stroke-miterlimit="10"/>
<path d="M237.916 -0.000427246V48.8046" stroke="#76857E" stroke-opacity="0.08" stroke-width="8.5625" stroke-miterlimit="10"/>
<path d="M249.363 -0.000427246V48.8046" stroke="#76857E" stroke-opacity="0.08" stroke-width="9.25" stroke-miterlimit="10"/>
<path d="M260.81 -0.000427246V48.8046" stroke="#76857E" stroke-opacity="0.08" stroke-width="9.9375" stroke-miterlimit="10"/>
<path d="M272.257 -0.000427246V48.8046" stroke="#76857E" stroke-opacity="0.08" stroke-width="10.625" stroke-miterlimit="10"/>
<path d="M283.703 -0.000427246V48.8046" stroke="#76857E" stroke-opacity="0.08" stroke-width="11.3125" stroke-miterlimit="10"/>
<path d="M295.15 -0.000427246V48.8046" stroke="#76857E" stroke-opacity="0.08" stroke-width="12" stroke-miterlimit="10"/>
<path d="M2.32901 2.16357C2.32901 2.80657 1.80801 3.32857 1.16501 3.32857C0.522009 3.32857 0 2.80757 0 2.16357C0 1.52057 0.521009 0.999573 1.16501 0.999573C1.80701 0.999573 2.32901 1.52057 2.32901 2.16357Z" fill="#76857E" fill-opacity="0.5"/>
<path d="M2.32901 12.6446C2.32901 13.2876 1.80801 13.8086 1.16501 13.8086C0.522009 13.8086 0 13.2876 0 12.6446C0 12.0016 0.521009 11.4806 1.16501 11.4806C1.80701 11.4796 2.32901 12.0006 2.32901 12.6446Z" fill="#76857E" fill-opacity="0.5"/>
<path d="M2.32901 23.1246C2.32901 23.7676 1.80801 24.2886 1.16501 24.2886C0.522009 24.2886 0 23.7676 0 23.1246C0 22.4816 0.521009 21.9606 1.16501 21.9606C1.80701 21.9596 2.32901 22.4806 2.32901 23.1246Z" fill="#76857E" fill-opacity="0.5"/>
<path d="M2.32901 33.6046C2.32901 34.2476 1.80801 34.7686 1.16501 34.7686C0.522009 34.7686 0 34.2476 0 33.6046C0 32.9616 0.521009 32.4406 1.16501 32.4406C1.80701 32.4396 2.32901 32.9616 2.32901 33.6046Z" fill="#76857E" fill-opacity="0.5"/>
<path d="M2.32901 44.0846C2.32901 44.7276 1.80801 45.2486 1.16501 45.2486C0.522009 45.2486 0 44.7276 0 44.0846C0 43.4416 0.521009 42.9206 1.16501 42.9206C1.80701 42.9206 2.32901 43.4416 2.32901 44.0846Z" fill="#76857E" fill-opacity="0.5"/>
<path d="M14.3612 2.16357C14.3612 2.80657 13.8402 3.32857 13.1972 3.32857C12.5542 3.32857 12.0332 2.80757 12.0332 2.16357C12.0332 1.52057 12.5542 0.999573 13.1972 0.999573C13.8402 0.999573 14.3612 1.52057 14.3612 2.16357Z" fill="#76857E" fill-opacity="0.5"/>
<path d="M14.3612 12.6446C14.3612 13.2876 13.8402 13.8086 13.1972 13.8086C12.5542 13.8086 12.0332 13.2876 12.0332 12.6446C12.0332 12.0016 12.5542 11.4806 13.1972 11.4806C13.8402 11.4806 14.3612 12.0006 14.3612 12.6446Z" fill="#76857E" fill-opacity="0.5"/>
<path d="M14.3612 23.1246C14.3612 23.7676 13.8402 24.2886 13.1972 24.2886C12.5542 24.2886 12.0332 23.7676 12.0332 23.1246C12.0332 22.4816 12.5542 21.9606 13.1972 21.9606C13.8402 21.9606 14.3612 22.4806 14.3612 23.1246Z" fill="#76857E" fill-opacity="0.5"/>
<path d="M14.3612 33.6046C14.3612 34.2476 13.8402 34.7686 13.1972 34.7686C12.5542 34.7686 12.0332 34.2476 12.0332 33.6046C12.0332 32.9616 12.5542 32.4406 13.1972 32.4406C13.8402 32.4406 14.3612 32.9616 14.3612 33.6046Z" fill="#76857E" fill-opacity="0.5"/>
<path d="M14.3612 44.0846C14.3612 44.7276 13.8402 45.2486 13.1972 45.2486C12.5542 45.2486 12.0332 44.7276 12.0332 44.0846C12.0332 43.4416 12.5542 42.9206 13.1972 42.9206C13.8402 42.9206 14.3612 43.4416 14.3612 44.0846Z" fill="#76857E" fill-opacity="0.5"/>
<path d="M26.3939 2.16357C26.3939 2.80657 25.8729 3.32857 25.2289 3.32857C24.5859 3.32857 24.0649 2.80757 24.0649 2.16357C24.0649 1.52057 24.5859 0.999573 25.2289 0.999573C25.8729 0.999573 26.3939 1.52057 26.3939 2.16357Z" fill="#76857E" fill-opacity="0.5"/>
<path d="M26.3939 12.6446C26.3939 13.2876 25.8729 13.8086 25.2289 13.8086C24.5859 13.8086 24.0649 13.2876 24.0649 12.6446C24.0649 12.0016 24.5859 11.4806 25.2289 11.4806C25.8729 11.4796 26.3939 12.0006 26.3939 12.6446Z" fill="#76857E" fill-opacity="0.5"/>
<path d="M26.3939 23.1246C26.3939 23.7676 25.8729 24.2886 25.2289 24.2886C24.5859 24.2886 24.0649 23.7676 24.0649 23.1246C24.0649 22.4816 24.5859 21.9606 25.2289 21.9606C25.8729 21.9596 26.3939 22.4806 26.3939 23.1246Z" fill="#76857E" fill-opacity="0.5"/>
<path d="M26.3939 33.6046C26.3939 34.2476 25.8729 34.7686 25.2289 34.7686C24.5859 34.7686 24.0649 34.2476 24.0649 33.6046C24.0649 32.9616 24.5859 32.4406 25.2289 32.4406C25.8729 32.4396 26.3939 32.9616 26.3939 33.6046Z" fill="#76857E" fill-opacity="0.5"/>
<path d="M26.3939 44.0846C26.3939 44.7276 25.8729 45.2486 25.2289 45.2486C24.5859 45.2486 24.0649 44.7276 24.0649 44.0846C24.0649 43.4416 24.5859 42.9206 25.2289 42.9206C25.8729 42.9206 26.3939 43.4416 26.3939 44.0846Z" fill="#76857E" fill-opacity="0.5"/>
<path d="M38.4272 2.16357C38.4272 2.80657 37.9061 3.32857 37.2621 3.32857C36.6181 3.32857 36.0981 2.80757 36.0981 2.16357C36.0981 1.52057 36.6191 0.999573 37.2621 0.999573C37.9051 0.999573 38.4272 1.52057 38.4272 2.16357Z" fill="#76857E" fill-opacity="0.5"/>
<path d="M38.4272 12.6446C38.4272 13.2876 37.9061 13.8086 37.2621 13.8086C36.6181 13.8086 36.0981 13.2876 36.0981 12.6446C36.0981 12.0016 36.6191 11.4806 37.2621 11.4806C37.9051 11.4806 38.4272 12.0006 38.4272 12.6446Z" fill="#76857E" fill-opacity="0.5"/>
<path d="M38.4272 23.1246C38.4272 23.7676 37.9061 24.2886 37.2621 24.2886C36.6181 24.2886 36.0981 23.7676 36.0981 23.1246C36.0981 22.4816 36.6191 21.9606 37.2621 21.9606C37.9051 21.9606 38.4272 22.4806 38.4272 23.1246Z" fill="#76857E" fill-opacity="0.5"/>
<path d="M38.4272 33.6046C38.4272 34.2476 37.9061 34.7686 37.2621 34.7686C36.6181 34.7686 36.0981 34.2476 36.0981 33.6046C36.0981 32.9616 36.6191 32.4406 37.2621 32.4406C37.9051 32.4406 38.4272 32.9616 38.4272 33.6046Z" fill="#76857E" fill-opacity="0.5"/>
<path d="M38.4272 44.0846C38.4272 44.7276 37.9061 45.2486 37.2621 45.2486C36.6181 45.2486 36.0981 44.7276 36.0981 44.0846C36.0981 43.4416 36.6191 42.9206 37.2621 42.9206C37.9051 42.9206 38.4272 43.4416 38.4272 44.0846Z" fill="#76857E" fill-opacity="0.5"/>
<path d="M50.4598 2.16357C50.4598 2.80657 49.9388 3.32857 49.2958 3.32857C48.6528 3.32857 48.1318 2.80757 48.1318 2.16357C48.1318 1.52057 48.6528 0.999573 49.2958 0.999573C49.9388 0.999573 50.4598 1.52057 50.4598 2.16357Z" fill="#76857E" fill-opacity="0.5"/>
<path d="M50.4598 12.6446C50.4598 13.2876 49.9388 13.8086 49.2958 13.8086C48.6528 13.8086 48.1318 13.2876 48.1318 12.6446C48.1318 12.0016 48.6528 11.4806 49.2958 11.4806C49.9388 11.4796 50.4598 12.0006 50.4598 12.6446Z" fill="#76857E" fill-opacity="0.5"/>
<path d="M50.4598 23.1246C50.4598 23.7676 49.9388 24.2886 49.2958 24.2886C48.6528 24.2886 48.1318 23.7676 48.1318 23.1246C48.1318 22.4816 48.6528 21.9606 49.2958 21.9606C49.9388 21.9596 50.4598 22.4806 50.4598 23.1246Z" fill="#76857E" fill-opacity="0.5"/>
<path d="M50.4598 33.6046C50.4598 34.2476 49.9388 34.7686 49.2958 34.7686C48.6528 34.7686 48.1318 34.2476 48.1318 33.6046C48.1318 32.9616 48.6528 32.4406 49.2958 32.4406C49.9388 32.4396 50.4598 32.9616 50.4598 33.6046Z" fill="#76857E" fill-opacity="0.5"/>
<path d="M50.4598 44.0846C50.4598 44.7276 49.9388 45.2486 49.2958 45.2486C48.6528 45.2486 48.1318 44.7276 48.1318 44.0846C48.1318 43.4416 48.6528 42.9206 49.2958 42.9206C49.9388 42.9206 50.4598 43.4416 50.4598 44.0846Z" fill="#76857E" fill-opacity="0.5"/>
<path d="M62.493 2.16357C62.493 2.80657 61.9721 3.32857 61.3281 3.32857C60.6851 3.32857 60.1641 2.80757 60.1641 2.16357C60.1641 1.52057 60.6851 0.999573 61.3281 0.999573C61.9711 0.999573 62.493 1.52057 62.493 2.16357Z" fill="#76857E" fill-opacity="0.5"/>
<path d="M62.493 12.6446C62.493 13.2876 61.9721 13.8086 61.3281 13.8086C60.6851 13.8086 60.1641 13.2876 60.1641 12.6446C60.1641 12.0016 60.6851 11.4806 61.3281 11.4806C61.9711 11.4796 62.493 12.0006 62.493 12.6446Z" fill="#76857E" fill-opacity="0.5"/>
<path d="M62.493 23.1246C62.493 23.7676 61.9721 24.2886 61.3281 24.2886C60.6851 24.2886 60.1641 23.7676 60.1641 23.1246C60.1641 22.4816 60.6851 21.9606 61.3281 21.9606C61.9711 21.9596 62.493 22.4806 62.493 23.1246Z" fill="#76857E" fill-opacity="0.5"/>
<path d="M62.493 33.6046C62.493 34.2476 61.9721 34.7686 61.3281 34.7686C60.6851 34.7686 60.1641 34.2476 60.1641 33.6046C60.1641 32.9616 60.6851 32.4406 61.3281 32.4406C61.9711 32.4396 62.493 32.9616 62.493 33.6046Z" fill="#76857E" fill-opacity="0.5"/>
<path d="M62.493 44.0846C62.493 44.7276 61.9721 45.2486 61.3281 45.2486C60.6851 45.2486 60.1641 44.7276 60.1641 44.0846C60.1641 43.4416 60.6851 42.9206 61.3281 42.9206C61.9711 42.9206 62.493 43.4416 62.493 44.0846Z" fill="#76857E" fill-opacity="0.5"/>
<path d="M74.5248 2.16357C74.5248 2.80657 74.0038 3.32857 73.3608 3.32857C72.7178 3.32857 72.1968 2.80757 72.1968 2.16357C72.1968 1.52057 72.7178 0.999573 73.3608 0.999573C74.0038 0.999573 74.5248 1.52057 74.5248 2.16357Z" fill="#76857E" fill-opacity="0.5"/>
<path d="M74.5248 12.6446C74.5248 13.2876 74.0038 13.8086 73.3608 13.8086C72.7178 13.8086 72.1968 13.2876 72.1968 12.6446C72.1968 12.0016 72.7178 11.4806 73.3608 11.4806C74.0038 11.4806 74.5248 12.0006 74.5248 12.6446Z" fill="#76857E" fill-opacity="0.5"/>
<path d="M74.5248 23.1246C74.5248 23.7676 74.0038 24.2886 73.3608 24.2886C72.7178 24.2886 72.1968 23.7676 72.1968 23.1246C72.1968 22.4816 72.7178 21.9606 73.3608 21.9606C74.0038 21.9606 74.5248 22.4806 74.5248 23.1246Z" fill="#76857E" fill-opacity="0.5"/>
<path d="M74.5248 33.6046C74.5248 34.2476 74.0038 34.7686 73.3608 34.7686C72.7178 34.7686 72.1968 34.2476 72.1968 33.6046C72.1968 32.9616 72.7178 32.4406 73.3608 32.4406C74.0038 32.4406 74.5248 32.9616 74.5248 33.6046Z" fill="#76857E" fill-opacity="0.5"/>
<path d="M74.5248 44.0846C74.5248 44.7276 74.0038 45.2486 73.3608 45.2486C72.7178 45.2486 72.1968 44.7276 72.1968 44.0846C72.1968 43.4416 72.7178 42.9206 73.3608 42.9206C74.0038 42.9206 74.5248 43.4416 74.5248 44.0846Z" fill="#76857E" fill-opacity="0.5"/>
<path d="M86.558 2.16357C86.558 2.80657 86.037 3.32857 85.394 3.32857C84.751 3.32857 84.23 2.80757 84.23 2.16357C84.23 1.52057 84.751 0.999573 85.394 0.999573C86.037 0.999573 86.558 1.52057 86.558 2.16357Z" fill="#76857E" fill-opacity="0.5"/>
<path d="M86.558 12.6446C86.558 13.2876 86.037 13.8086 85.394 13.8086C84.751 13.8086 84.23 13.2876 84.23 12.6446C84.23 12.0016 84.751 11.4806 85.394 11.4806C86.037 11.4806 86.558 12.0006 86.558 12.6446Z" fill="#76857E" fill-opacity="0.5"/>
<path d="M86.558 23.1246C86.558 23.7676 86.037 24.2886 85.394 24.2886C84.751 24.2886 84.23 23.7676 84.23 23.1246C84.23 22.4816 84.751 21.9606 85.394 21.9606C86.037 21.9606 86.558 22.4806 86.558 23.1246Z" fill="#76857E" fill-opacity="0.5"/>
<path d="M86.558 33.6046C86.558 34.2476 86.037 34.7686 85.394 34.7686C84.751 34.7686 84.23 34.2476 84.23 33.6046C84.23 32.9616 84.751 32.4406 85.394 32.4406C86.037 32.4406 86.558 32.9616 86.558 33.6046Z" fill="#76857E" fill-opacity="0.5"/>
<path d="M86.558 44.0846C86.558 44.7276 86.037 45.2486 85.394 45.2486C84.751 45.2486 84.23 44.7276 84.23 44.0846C84.23 43.4416 84.751 42.9206 85.394 42.9206C86.037 42.9206 86.558 43.4416 86.558 44.0846Z" fill="#76857E" fill-opacity="0.5"/>
<path d="M98.5912 2.16357C98.5912 2.80657 98.0702 3.32857 97.4272 3.32857C96.7842 3.32857 96.2622 2.80757 96.2622 2.16357C96.2622 1.52057 96.7832 0.999573 97.4272 0.999573C98.0702 0.999573 98.5912 1.52057 98.5912 2.16357Z" fill="#76857E" fill-opacity="0.5"/>
<path d="M98.5912 12.6446C98.5912 13.2876 98.0702 13.8086 97.4272 13.8086C96.7842 13.8086 96.2622 13.2876 96.2622 12.6446C96.2622 12.0016 96.7832 11.4806 97.4272 11.4806C98.0702 11.4796 98.5912 12.0006 98.5912 12.6446Z" fill="#76857E" fill-opacity="0.5"/>
<path d="M98.5912 23.1246C98.5912 23.7676 98.0702 24.2886 97.4272 24.2886C96.7842 24.2886 96.2622 23.7676 96.2622 23.1246C96.2622 22.4816 96.7832 21.9606 97.4272 21.9606C98.0702 21.9596 98.5912 22.4806 98.5912 23.1246Z" fill="#76857E" fill-opacity="0.5"/>
<path d="M98.5912 33.6046C98.5912 34.2476 98.0702 34.7686 97.4272 34.7686C96.7842 34.7686 96.2622 34.2476 96.2622 33.6046C96.2622 32.9616 96.7832 32.4406 97.4272 32.4406C98.0702 32.4396 98.5912 32.9616 98.5912 33.6046Z" fill="#76857E" fill-opacity="0.5"/>
<path d="M98.5912 44.0846C98.5912 44.7276 98.0702 45.2486 97.4272 45.2486C96.7842 45.2486 96.2622 44.7276 96.2622 44.0846C96.2622 43.4416 96.7832 42.9206 97.4272 42.9206C98.0702 42.9206 98.5912 43.4416 98.5912 44.0846Z" fill="#76857E" fill-opacity="0.5"/>
<path d="M110.624 2.16357C110.624 2.80657 110.103 3.32857 109.46 3.32857C108.817 3.32857 108.296 2.80757 108.296 2.16357C108.296 1.52057 108.817 0.999573 109.46 0.999573C110.102 0.999573 110.624 1.52057 110.624 2.16357Z" fill="#76857E" fill-opacity="0.5"/>
<path d="M110.624 12.6446C110.624 13.2876 110.103 13.8086 109.46 13.8086C108.817 13.8086 108.296 13.2876 108.296 12.6446C108.296 12.0016 108.817 11.4806 109.46 11.4806C110.102 11.4796 110.624 12.0006 110.624 12.6446Z" fill="#76857E" fill-opacity="0.5"/>
<path d="M110.624 23.1246C110.624 23.7676 110.103 24.2886 109.46 24.2886C108.817 24.2886 108.296 23.7676 108.296 23.1246C108.296 22.4816 108.817 21.9606 109.46 21.9606C110.102 21.9596 110.624 22.4806 110.624 23.1246Z" fill="#76857E" fill-opacity="0.5"/>
<path d="M110.624 33.6046C110.624 34.2476 110.103 34.7686 109.46 34.7686C108.817 34.7686 108.296 34.2476 108.296 33.6046C108.296 32.9616 108.817 32.4406 109.46 32.4406C110.102 32.4396 110.624 32.9616 110.624 33.6046Z" fill="#76857E" fill-opacity="0.5"/>
<path d="M110.624 44.0846C110.624 44.7276 110.103 45.2486 109.46 45.2486C108.817 45.2486 108.296 44.7276 108.296 44.0846C108.296 43.4416 108.817 42.9206 109.46 42.9206C110.102 42.9206 110.624 43.4416 110.624 44.0846Z" fill="#76857E" fill-opacity="0.5"/>
</svg>
