<svg width="130" height="68" viewBox="0 0 130 68" fill="none" xmlns="http://www.w3.org/2000/svg">
<ellipse cx="40" cy="14" rx="7" ry="14" fill="#76857E" fill-opacity="0.5"/>
<mask id="path-2-outside-1_2_72" maskUnits="userSpaceOnUse" x="10" y="-1" width="120" height="62" fill="black">
<rect fill="white" x="10" y="-1" width="120" height="62"/>
<path d="M11.0813 28C10.8146 28 10.6813 27.8667 10.6813 27.6V0.8C10.6813 0.533332 10.8146 0.399998 11.0813 0.399998H18.6413C18.9079 0.399998 19.0413 0.533332 19.0413 0.8C19.0413 1.09333 18.9079 1.24 18.6413 1.24H11.5213V12.72H18.2413C18.5079 12.72 18.6413 12.8533 18.6413 13.12C18.6413 13.4133 18.5079 13.56 18.2413 13.56H11.5213V27.6C11.5213 27.8667 11.3746 28 11.0813 28ZM23.0344 28C22.7677 28 22.6344 27.8667 22.6344 27.6V0.8C22.6344 0.533332 22.7677 0.399998 23.0344 0.399998C23.3277 0.399998 23.4744 0.533332 23.4744 0.8V27.16H32.5144C32.781 27.16 32.9144 27.2933 32.9144 27.56C32.9144 27.8533 32.781 28 32.5144 28H23.0344ZM39.8184 28.2C37.4718 28.2 35.6584 26.9867 34.3784 24.56C33.1251 22.1333 32.4984 18.68 32.4984 14.2C32.4984 9.72 33.1251 6.26667 34.3784 3.84C35.6584 1.41333 37.4718 0.199998 39.8184 0.199998C42.1651 0.199998 43.9651 1.41333 45.2184 3.84C46.4984 6.26667 47.1384 9.72 47.1384 14.2C47.1384 18.68 46.4984 22.1333 45.2184 24.56C43.9651 26.9867 42.1651 28.2 39.8184 28.2ZM39.8184 27.36C41.8718 27.36 43.4584 26.2133 44.5784 23.92C45.6984 21.6267 46.2584 18.3867 46.2584 14.2C46.2584 10.0133 45.6984 6.77333 44.5784 4.48C43.4584 2.18667 41.8718 1.04 39.8184 1.04C37.7918 1.04 36.2051 2.18667 35.0584 4.48C33.9384 6.77333 33.3784 10.0133 33.3784 14.2C33.3784 18.3867 33.9384 21.6267 35.0584 23.92C36.2051 26.2133 37.7918 27.36 39.8184 27.36ZM51.47 28C51.2033 28 51.07 27.8667 51.07 27.6V14.6C50.4033 14.4133 49.8433 14.16 49.39 13.84C48.9633 13.4933 48.75 13.0667 48.75 12.56C48.75 12.16 48.9767 11.84 49.43 11.6C49.91 11.36 50.4567 11.2 51.07 11.12V0.8C51.07 0.533332 51.2033 0.399998 51.47 0.399998H56.15C57.8833 0.399998 59.2033 1.05333 60.11 2.36C61.0433 3.66667 61.51 5.34667 61.51 7.4C61.51 8.78667 61.2167 10.0267 60.63 11.12C60.07 12.2133 59.2833 13.0933 58.27 13.76C59.4433 15.0667 60.31 16.8533 60.87 19.12L62.95 27.52C63.0033 27.7067 62.9633 27.84 62.83 27.92C62.6967 27.9733 62.59 28 62.51 28C62.2967 28 62.1633 27.8933 62.11 27.68L60.03 19.28C59.4967 17.0667 58.67 15.36 57.55 14.16C56.4833 14.6933 55.31 14.96 54.03 14.96C53.2833 14.96 52.5767 14.9067 51.91 14.8V27.6C51.91 27.8667 51.7633 28 51.47 28ZM56.15 1.24H51.91V11.08C54.2833 11.08 56.2167 11.7733 57.71 13.16C58.59 12.6 59.2967 11.84 59.83 10.88C60.3633 9.89333 60.63 8.73333 60.63 7.4C60.63 5.66666 60.27 4.21333 59.55 3.04C58.83 1.84 57.6967 1.24 56.15 1.24ZM54.03 14.2C55.07 14.2 56.0433 14 56.95 13.6C55.6167 12.48 53.9367 11.92 51.91 11.92V13.96C52.6567 14.12 53.3633 14.2 54.03 14.2ZM49.59 12.6C49.59 12.84 49.7233 13.0533 49.99 13.24C50.2833 13.4267 50.6433 13.5867 51.07 13.72V11.96C50.67 11.9867 50.3233 12.0533 50.03 12.16C49.7367 12.2667 49.59 12.4133 49.59 12.6ZM66.7453 28C66.4786 28 66.3453 27.8667 66.3453 27.6V0.8C66.3453 0.533332 66.4786 0.399998 66.7453 0.399998H74.3053C74.572 0.399998 74.7053 0.533332 74.7053 0.8C74.7053 1.09333 74.572 1.24 74.3053 1.24H67.1853V12.72H73.9053C74.172 12.72 74.3053 12.8533 74.3053 13.12C74.3053 13.4133 74.172 13.56 73.9053 13.56H67.1853V27.16H74.3053C74.572 27.16 74.7053 27.2933 74.7053 27.56C74.7053 27.8533 74.572 28 74.3053 28H66.7453ZM79.0891 28C78.8224 28 78.6891 27.8667 78.6891 27.6V0.8C78.6891 0.533332 78.8224 0.399998 79.0891 0.399998C79.2757 0.399998 79.4091 0.479998 79.4891 0.639999L89.9291 25.56V0.8C89.9291 0.533332 90.0624 0.399998 90.3291 0.399998C90.6224 0.399998 90.7691 0.533332 90.7691 0.8V27.6C90.7691 27.8667 90.6224 28 90.3291 28C90.1424 28 90.0224 27.92 89.9691 27.76L79.5291 2.84V27.6C79.5291 27.8667 79.3824 28 79.0891 28ZM102.164 28.2C99.7907 28.2 97.9641 26.9867 96.6841 24.56C95.4041 22.1333 94.7641 18.6933 94.7641 14.24C94.7641 9.73333 95.4041 6.26667 96.6841 3.84C97.9641 1.41333 99.7907 0.199998 102.164 0.199998C102.911 0.199998 103.631 0.319998 104.324 0.559998C105.044 0.799998 105.684 1.16 106.244 1.64C106.351 1.72 106.404 1.82667 106.404 1.96C106.404 2.25333 106.257 2.4 105.964 2.4C105.857 2.4 105.764 2.36 105.684 2.28C105.177 1.85333 104.617 1.54667 104.004 1.36C103.391 1.14667 102.777 1.04 102.164 1.04C100.084 1.04 98.4707 2.18667 97.3241 4.48C96.2041 6.77333 95.6441 10.0267 95.6441 14.24C95.6441 18.4 96.2041 21.6267 97.3241 23.92C98.4707 26.2133 100.084 27.36 102.164 27.36C102.777 27.36 103.391 27.2667 104.004 27.08C104.617 26.8667 105.177 26.5467 105.684 26.12C105.764 26.04 105.857 26 105.964 26C106.257 26 106.404 26.1467 106.404 26.44C106.404 26.5733 106.351 26.68 106.244 26.76C105.684 27.24 105.044 27.6 104.324 27.84C103.631 28.08 102.911 28.2 102.164 28.2ZM110.613 28C110.346 28 110.213 27.8667 110.213 27.6V0.8C110.213 0.533332 110.346 0.399998 110.613 0.399998C110.906 0.399998 111.053 0.533332 111.053 0.8V27.6C111.053 27.8667 110.906 28 110.613 28ZM114.478 28C114.318 28 114.198 27.9467 114.118 27.84C114.064 27.7067 114.051 27.5867 114.078 27.48L121.278 0.719998C121.331 0.506665 121.464 0.399998 121.678 0.399998C121.918 0.399998 122.064 0.506665 122.118 0.719998L129.358 27.48C129.411 27.5867 129.398 27.7067 129.318 27.84C129.238 27.9467 129.118 28 128.958 28C128.744 28 128.611 27.8933 128.558 27.68L125.718 17.24H117.678L114.878 27.68C114.824 27.8933 114.691 28 114.478 28ZM117.918 16.4H125.518L121.718 2.32L117.918 16.4ZM57.5266 60C57.2599 60 57.1266 59.8667 57.1266 59.6V32.8C57.1266 32.5333 57.2599 32.4 57.5266 32.4H65.0866C65.3532 32.4 65.4866 32.5333 65.4866 32.8C65.4866 33.0933 65.3532 33.24 65.0866 33.24H57.9666V44.72H64.6866C64.9532 44.72 65.0866 44.8533 65.0866 45.12C65.0866 45.4133 64.9532 45.56 64.6866 45.56H57.9666V59.6C57.9666 59.8667 57.8199 60 57.5266 60ZM74.9197 60C72.9197 60 71.373 59.44 70.2797 58.32C69.213 57.2 68.6797 55.6 68.6797 53.52V32.8C68.6797 32.5333 68.813 32.4 69.0797 32.4C69.373 32.4 69.5197 32.5333 69.5197 32.8V53.72C69.5197 55.4533 69.9864 56.8 70.9197 57.76C71.8797 58.72 73.213 59.2 74.9197 59.2C76.6264 59.2 77.9464 58.72 78.8797 57.76C79.8397 56.8 80.3197 55.4533 80.3197 53.72V32.8C80.3197 32.5333 80.4664 32.4 80.7597 32.4C81.0264 32.4 81.1597 32.5333 81.1597 32.8V53.52C81.1597 55.6 80.613 57.2 79.5197 58.32C78.453 59.44 76.9197 60 74.9197 60ZM85.8841 60C85.6174 60 85.4841 59.8667 85.4841 59.6V46.6C84.8174 46.4133 84.2574 46.16 83.8041 45.84C83.3774 45.4933 83.1641 45.0667 83.1641 44.56C83.1641 44.16 83.3907 43.84 83.8441 43.6C84.3241 43.36 84.8707 43.2 85.4841 43.12V32.8C85.4841 32.5333 85.6174 32.4 85.8841 32.4H90.5641C92.2974 32.4 93.6174 33.0533 94.5241 34.36C95.4574 35.6667 95.9241 37.3467 95.9241 39.4C95.9241 40.7867 95.6307 42.0267 95.0441 43.12C94.4841 44.2133 93.6974 45.0933 92.6841 45.76C93.8574 47.0667 94.7241 48.8533 95.2841 51.12L97.3641 59.52C97.4174 59.7067 97.3774 59.84 97.2441 59.92C97.1107 59.9733 97.0041 60 96.9241 60C96.7107 60 96.5774 59.8933 96.5241 59.68L94.4441 51.28C93.9107 49.0667 93.0841 47.36 91.9641 46.16C90.8974 46.6933 89.7241 46.96 88.4441 46.96C87.6974 46.96 86.9907 46.9067 86.3241 46.8V59.6C86.3241 59.8667 86.1774 60 85.8841 60ZM90.5641 33.24H86.3241V43.08C88.6974 43.08 90.6307 43.7733 92.1241 45.16C93.0041 44.6 93.7107 43.84 94.2441 42.88C94.7774 41.8933 95.0441 40.7333 95.0441 39.4C95.0441 37.6667 94.6841 36.2133 93.9641 35.04C93.2441 33.84 92.1107 33.24 90.5641 33.24ZM88.4441 46.2C89.4841 46.2 90.4574 46 91.3641 45.6C90.0307 44.48 88.3507 43.92 86.3241 43.92V45.96C87.0707 46.12 87.7774 46.2 88.4441 46.2ZM84.0041 44.6C84.0041 44.84 84.1374 45.0533 84.4041 45.24C84.6974 45.4267 85.0574 45.5867 85.4841 45.72V43.96C85.0841 43.9867 84.7374 44.0533 84.4441 44.16C84.1507 44.2667 84.0041 44.4133 84.0041 44.6ZM107.359 60.2C104.986 60.2 103.159 58.9867 101.879 56.56C100.599 54.1333 99.9594 50.6933 99.9594 46.24C99.9594 41.7333 100.599 38.2667 101.879 35.84C103.159 33.4133 104.986 32.2 107.359 32.2C108.106 32.2 108.826 32.32 109.519 32.56C110.239 32.8 110.879 33.16 111.439 33.64C111.546 33.72 111.599 33.8267 111.599 33.96C111.599 34.2533 111.453 34.4 111.159 34.4C111.053 34.4 110.959 34.36 110.879 34.28C110.373 33.8533 109.813 33.5467 109.199 33.36C108.586 33.1467 107.973 33.04 107.359 33.04C105.279 33.04 103.666 34.1867 102.519 36.48C101.399 38.7733 100.839 42.0267 100.839 46.24C100.839 50.4 101.399 53.6267 102.519 55.92C103.666 58.2133 105.279 59.36 107.359 59.36C107.973 59.36 108.586 59.2667 109.199 59.08C109.813 58.8667 110.373 58.5467 110.879 58.12C110.959 58.04 111.053 58 111.159 58C111.453 58 111.599 58.1467 111.599 58.44C111.599 58.5733 111.546 58.68 111.439 58.76C110.879 59.24 110.239 59.6 109.519 59.84C108.826 60.08 108.106 60.2 107.359 60.2ZM115.808 60C115.541 60 115.408 59.8667 115.408 59.6V32.8C115.408 32.5333 115.541 32.4 115.808 32.4C116.101 32.4 116.248 32.5333 116.248 32.8V44.76H126.768V32.8C126.768 32.5333 126.901 32.4 127.168 32.4C127.461 32.4 127.608 32.5333 127.608 32.8V59.6C127.608 59.8667 127.461 60 127.168 60C126.901 60 126.768 59.8667 126.768 59.6V45.6H116.248V59.6C116.248 59.8667 116.101 60 115.808 60Z"/>
</mask>
<path d="M11.0813 28C10.8146 28 10.6813 27.8667 10.6813 27.6V0.8C10.6813 0.533332 10.8146 0.399998 11.0813 0.399998H18.6413C18.9079 0.399998 19.0413 0.533332 19.0413 0.8C19.0413 1.09333 18.9079 1.24 18.6413 1.24H11.5213V12.72H18.2413C18.5079 12.72 18.6413 12.8533 18.6413 13.12C18.6413 13.4133 18.5079 13.56 18.2413 13.56H11.5213V27.6C11.5213 27.8667 11.3746 28 11.0813 28ZM23.0344 28C22.7677 28 22.6344 27.8667 22.6344 27.6V0.8C22.6344 0.533332 22.7677 0.399998 23.0344 0.399998C23.3277 0.399998 23.4744 0.533332 23.4744 0.8V27.16H32.5144C32.781 27.16 32.9144 27.2933 32.9144 27.56C32.9144 27.8533 32.781 28 32.5144 28H23.0344ZM39.8184 28.2C37.4718 28.2 35.6584 26.9867 34.3784 24.56C33.1251 22.1333 32.4984 18.68 32.4984 14.2C32.4984 9.72 33.1251 6.26667 34.3784 3.84C35.6584 1.41333 37.4718 0.199998 39.8184 0.199998C42.1651 0.199998 43.9651 1.41333 45.2184 3.84C46.4984 6.26667 47.1384 9.72 47.1384 14.2C47.1384 18.68 46.4984 22.1333 45.2184 24.56C43.9651 26.9867 42.1651 28.2 39.8184 28.2ZM39.8184 27.36C41.8718 27.36 43.4584 26.2133 44.5784 23.92C45.6984 21.6267 46.2584 18.3867 46.2584 14.2C46.2584 10.0133 45.6984 6.77333 44.5784 4.48C43.4584 2.18667 41.8718 1.04 39.8184 1.04C37.7918 1.04 36.2051 2.18667 35.0584 4.48C33.9384 6.77333 33.3784 10.0133 33.3784 14.2C33.3784 18.3867 33.9384 21.6267 35.0584 23.92C36.2051 26.2133 37.7918 27.36 39.8184 27.36ZM51.47 28C51.2033 28 51.07 27.8667 51.07 27.6V14.6C50.4033 14.4133 49.8433 14.16 49.39 13.84C48.9633 13.4933 48.75 13.0667 48.75 12.56C48.75 12.16 48.9767 11.84 49.43 11.6C49.91 11.36 50.4567 11.2 51.07 11.12V0.8C51.07 0.533332 51.2033 0.399998 51.47 0.399998H56.15C57.8833 0.399998 59.2033 1.05333 60.11 2.36C61.0433 3.66667 61.51 5.34667 61.51 7.4C61.51 8.78667 61.2167 10.0267 60.63 11.12C60.07 12.2133 59.2833 13.0933 58.27 13.76C59.4433 15.0667 60.31 16.8533 60.87 19.12L62.95 27.52C63.0033 27.7067 62.9633 27.84 62.83 27.92C62.6967 27.9733 62.59 28 62.51 28C62.2967 28 62.1633 27.8933 62.11 27.68L60.03 19.28C59.4967 17.0667 58.67 15.36 57.55 14.16C56.4833 14.6933 55.31 14.96 54.03 14.96C53.2833 14.96 52.5767 14.9067 51.91 14.8V27.6C51.91 27.8667 51.7633 28 51.47 28ZM56.15 1.24H51.91V11.08C54.2833 11.08 56.2167 11.7733 57.71 13.16C58.59 12.6 59.2967 11.84 59.83 10.88C60.3633 9.89333 60.63 8.73333 60.63 7.4C60.63 5.66666 60.27 4.21333 59.55 3.04C58.83 1.84 57.6967 1.24 56.15 1.24ZM54.03 14.2C55.07 14.2 56.0433 14 56.95 13.6C55.6167 12.48 53.9367 11.92 51.91 11.92V13.96C52.6567 14.12 53.3633 14.2 54.03 14.2ZM49.59 12.6C49.59 12.84 49.7233 13.0533 49.99 13.24C50.2833 13.4267 50.6433 13.5867 51.07 13.72V11.96C50.67 11.9867 50.3233 12.0533 50.03 12.16C49.7367 12.2667 49.59 12.4133 49.59 12.6ZM66.7453 28C66.4786 28 66.3453 27.8667 66.3453 27.6V0.8C66.3453 0.533332 66.4786 0.399998 66.7453 0.399998H74.3053C74.572 0.399998 74.7053 0.533332 74.7053 0.8C74.7053 1.09333 74.572 1.24 74.3053 1.24H67.1853V12.72H73.9053C74.172 12.72 74.3053 12.8533 74.3053 13.12C74.3053 13.4133 74.172 13.56 73.9053 13.56H67.1853V27.16H74.3053C74.572 27.16 74.7053 27.2933 74.7053 27.56C74.7053 27.8533 74.572 28 74.3053 28H66.7453ZM79.0891 28C78.8224 28 78.6891 27.8667 78.6891 27.6V0.8C78.6891 0.533332 78.8224 0.399998 79.0891 0.399998C79.2757 0.399998 79.4091 0.479998 79.4891 0.639999L89.9291 25.56V0.8C89.9291 0.533332 90.0624 0.399998 90.3291 0.399998C90.6224 0.399998 90.7691 0.533332 90.7691 0.8V27.6C90.7691 27.8667 90.6224 28 90.3291 28C90.1424 28 90.0224 27.92 89.9691 27.76L79.5291 2.84V27.6C79.5291 27.8667 79.3824 28 79.0891 28ZM102.164 28.2C99.7907 28.2 97.9641 26.9867 96.6841 24.56C95.4041 22.1333 94.7641 18.6933 94.7641 14.24C94.7641 9.73333 95.4041 6.26667 96.6841 3.84C97.9641 1.41333 99.7907 0.199998 102.164 0.199998C102.911 0.199998 103.631 0.319998 104.324 0.559998C105.044 0.799998 105.684 1.16 106.244 1.64C106.351 1.72 106.404 1.82667 106.404 1.96C106.404 2.25333 106.257 2.4 105.964 2.4C105.857 2.4 105.764 2.36 105.684 2.28C105.177 1.85333 104.617 1.54667 104.004 1.36C103.391 1.14667 102.777 1.04 102.164 1.04C100.084 1.04 98.4707 2.18667 97.3241 4.48C96.2041 6.77333 95.6441 10.0267 95.6441 14.24C95.6441 18.4 96.2041 21.6267 97.3241 23.92C98.4707 26.2133 100.084 27.36 102.164 27.36C102.777 27.36 103.391 27.2667 104.004 27.08C104.617 26.8667 105.177 26.5467 105.684 26.12C105.764 26.04 105.857 26 105.964 26C106.257 26 106.404 26.1467 106.404 26.44C106.404 26.5733 106.351 26.68 106.244 26.76C105.684 27.24 105.044 27.6 104.324 27.84C103.631 28.08 102.911 28.2 102.164 28.2ZM110.613 28C110.346 28 110.213 27.8667 110.213 27.6V0.8C110.213 0.533332 110.346 0.399998 110.613 0.399998C110.906 0.399998 111.053 0.533332 111.053 0.8V27.6C111.053 27.8667 110.906 28 110.613 28ZM114.478 28C114.318 28 114.198 27.9467 114.118 27.84C114.064 27.7067 114.051 27.5867 114.078 27.48L121.278 0.719998C121.331 0.506665 121.464 0.399998 121.678 0.399998C121.918 0.399998 122.064 0.506665 122.118 0.719998L129.358 27.48C129.411 27.5867 129.398 27.7067 129.318 27.84C129.238 27.9467 129.118 28 128.958 28C128.744 28 128.611 27.8933 128.558 27.68L125.718 17.24H117.678L114.878 27.68C114.824 27.8933 114.691 28 114.478 28ZM117.918 16.4H125.518L121.718 2.32L117.918 16.4ZM57.5266 60C57.2599 60 57.1266 59.8667 57.1266 59.6V32.8C57.1266 32.5333 57.2599 32.4 57.5266 32.4H65.0866C65.3532 32.4 65.4866 32.5333 65.4866 32.8C65.4866 33.0933 65.3532 33.24 65.0866 33.24H57.9666V44.72H64.6866C64.9532 44.72 65.0866 44.8533 65.0866 45.12C65.0866 45.4133 64.9532 45.56 64.6866 45.56H57.9666V59.6C57.9666 59.8667 57.8199 60 57.5266 60ZM74.9197 60C72.9197 60 71.373 59.44 70.2797 58.32C69.213 57.2 68.6797 55.6 68.6797 53.52V32.8C68.6797 32.5333 68.813 32.4 69.0797 32.4C69.373 32.4 69.5197 32.5333 69.5197 32.8V53.72C69.5197 55.4533 69.9864 56.8 70.9197 57.76C71.8797 58.72 73.213 59.2 74.9197 59.2C76.6264 59.2 77.9464 58.72 78.8797 57.76C79.8397 56.8 80.3197 55.4533 80.3197 53.72V32.8C80.3197 32.5333 80.4664 32.4 80.7597 32.4C81.0264 32.4 81.1597 32.5333 81.1597 32.8V53.52C81.1597 55.6 80.613 57.2 79.5197 58.32C78.453 59.44 76.9197 60 74.9197 60ZM85.8841 60C85.6174 60 85.4841 59.8667 85.4841 59.6V46.6C84.8174 46.4133 84.2574 46.16 83.8041 45.84C83.3774 45.4933 83.1641 45.0667 83.1641 44.56C83.1641 44.16 83.3907 43.84 83.8441 43.6C84.3241 43.36 84.8707 43.2 85.4841 43.12V32.8C85.4841 32.5333 85.6174 32.4 85.8841 32.4H90.5641C92.2974 32.4 93.6174 33.0533 94.5241 34.36C95.4574 35.6667 95.9241 37.3467 95.9241 39.4C95.9241 40.7867 95.6307 42.0267 95.0441 43.12C94.4841 44.2133 93.6974 45.0933 92.6841 45.76C93.8574 47.0667 94.7241 48.8533 95.2841 51.12L97.3641 59.52C97.4174 59.7067 97.3774 59.84 97.2441 59.92C97.1107 59.9733 97.0041 60 96.9241 60C96.7107 60 96.5774 59.8933 96.5241 59.68L94.4441 51.28C93.9107 49.0667 93.0841 47.36 91.9641 46.16C90.8974 46.6933 89.7241 46.96 88.4441 46.96C87.6974 46.96 86.9907 46.9067 86.3241 46.8V59.6C86.3241 59.8667 86.1774 60 85.8841 60ZM90.5641 33.24H86.3241V43.08C88.6974 43.08 90.6307 43.7733 92.1241 45.16C93.0041 44.6 93.7107 43.84 94.2441 42.88C94.7774 41.8933 95.0441 40.7333 95.0441 39.4C95.0441 37.6667 94.6841 36.2133 93.9641 35.04C93.2441 33.84 92.1107 33.24 90.5641 33.24ZM88.4441 46.2C89.4841 46.2 90.4574 46 91.3641 45.6C90.0307 44.48 88.3507 43.92 86.3241 43.92V45.96C87.0707 46.12 87.7774 46.2 88.4441 46.2ZM84.0041 44.6C84.0041 44.84 84.1374 45.0533 84.4041 45.24C84.6974 45.4267 85.0574 45.5867 85.4841 45.72V43.96C85.0841 43.9867 84.7374 44.0533 84.4441 44.16C84.1507 44.2667 84.0041 44.4133 84.0041 44.6ZM107.359 60.2C104.986 60.2 103.159 58.9867 101.879 56.56C100.599 54.1333 99.9594 50.6933 99.9594 46.24C99.9594 41.7333 100.599 38.2667 101.879 35.84C103.159 33.4133 104.986 32.2 107.359 32.2C108.106 32.2 108.826 32.32 109.519 32.56C110.239 32.8 110.879 33.16 111.439 33.64C111.546 33.72 111.599 33.8267 111.599 33.96C111.599 34.2533 111.453 34.4 111.159 34.4C111.053 34.4 110.959 34.36 110.879 34.28C110.373 33.8533 109.813 33.5467 109.199 33.36C108.586 33.1467 107.973 33.04 107.359 33.04C105.279 33.04 103.666 34.1867 102.519 36.48C101.399 38.7733 100.839 42.0267 100.839 46.24C100.839 50.4 101.399 53.6267 102.519 55.92C103.666 58.2133 105.279 59.36 107.359 59.36C107.973 59.36 108.586 59.2667 109.199 59.08C109.813 58.8667 110.373 58.5467 110.879 58.12C110.959 58.04 111.053 58 111.159 58C111.453 58 111.599 58.1467 111.599 58.44C111.599 58.5733 111.546 58.68 111.439 58.76C110.879 59.24 110.239 59.6 109.519 59.84C108.826 60.08 108.106 60.2 107.359 60.2ZM115.808 60C115.541 60 115.408 59.8667 115.408 59.6V32.8C115.408 32.5333 115.541 32.4 115.808 32.4C116.101 32.4 116.248 32.5333 116.248 32.8V44.76H126.768V32.8C126.768 32.5333 126.901 32.4 127.168 32.4C127.461 32.4 127.608 32.5333 127.608 32.8V59.6C127.608 59.8667 127.461 60 127.168 60C126.901 60 126.768 59.8667 126.768 59.6V45.6H116.248V59.6C116.248 59.8667 116.101 60 115.808 60Z" fill="#76857E"/>
<path d="M11.5212 1.24V0.939999H11.2212V1.24H11.5212ZM11.5212 12.72H11.2212V13.02H11.5212V12.72ZM11.5212 13.56V13.26H11.2212V13.56H11.5212ZM11.0813 27.7C10.9942 27.7 10.9839 27.6784 10.9934 27.6879C11.0028 27.6973 10.9812 27.6871 10.9812 27.6H10.3813C10.3813 27.7796 10.4263 27.9694 10.5691 28.1121C10.7119 28.2549 10.9017 28.3 11.0813 28.3V27.7ZM10.9812 27.6V0.8H10.3813V27.6H10.9812ZM10.9812 0.8C10.9812 0.712909 11.0028 0.702693 10.9934 0.71213C10.9839 0.721567 10.9942 0.699998 11.0813 0.699998V0.0999977C10.9017 0.0999977 10.7119 0.145095 10.5691 0.287867C10.4263 0.430638 10.3813 0.620423 10.3813 0.8H10.9812ZM11.0813 0.699998H18.6413V0.0999977H11.0813V0.699998ZM18.6413 0.699998C18.7283 0.699998 18.7386 0.721567 18.7291 0.71213C18.7197 0.702693 18.7413 0.712909 18.7413 0.8H19.3413C19.3413 0.620422 19.2962 0.430637 19.1534 0.287866C19.0106 0.145095 18.8208 0.0999977 18.6413 0.0999977V0.699998ZM18.7413 0.8C18.7413 0.907121 18.7163 0.931471 18.7193 0.928197C18.7272 0.919498 18.7206 0.939999 18.6413 0.939999V1.54C18.8286 1.54 19.022 1.48717 19.1632 1.3318C19.2995 1.18186 19.3413 0.986211 19.3413 0.8H18.7413ZM18.6413 0.939999H11.5212V1.54H18.6413V0.939999ZM11.2212 1.24V12.72H11.8212V1.24H11.2212ZM11.5212 13.02H18.2413V12.42H11.5212V13.02ZM18.2413 13.02C18.3283 13.02 18.3386 13.0416 18.3291 13.0321C18.3197 13.0227 18.3412 13.0329 18.3412 13.12H18.9412C18.9412 12.9404 18.8962 12.7506 18.7534 12.6079C18.6106 12.4651 18.4208 12.42 18.2413 12.42V13.02ZM18.3412 13.12C18.3412 13.2271 18.3163 13.2515 18.3193 13.2482C18.3272 13.2395 18.3206 13.26 18.2413 13.26V13.86C18.4286 13.86 18.622 13.8072 18.7632 13.6518C18.8995 13.5019 18.9412 13.3062 18.9412 13.12H18.3412ZM18.2413 13.26H11.5212V13.86H18.2413V13.26ZM11.2212 13.56V27.6H11.8212V13.56H11.2212ZM11.2212 27.6C11.2212 27.6793 11.2007 27.6859 11.2094 27.678C11.2127 27.675 11.1884 27.7 11.0813 27.7V28.3C11.2675 28.3 11.4631 28.2583 11.6131 28.122C11.7684 27.9807 11.8212 27.7873 11.8212 27.6H11.2212ZM23.4744 27.16H23.1744V27.46H23.4744V27.16ZM23.0344 27.7C22.9473 27.7 22.9371 27.6784 22.9465 27.6879C22.9559 27.6973 22.9344 27.6871 22.9344 27.6H22.3344C22.3344 27.7796 22.3795 27.9694 22.5222 28.1121C22.665 28.2549 22.8548 28.3 23.0344 28.3V27.7ZM22.9344 27.6V0.8H22.3344V27.6H22.9344ZM22.9344 0.8C22.9344 0.712909 22.9559 0.702693 22.9465 0.71213C22.9371 0.721567 22.9473 0.699998 23.0344 0.699998V0.0999977C22.8548 0.0999977 22.665 0.145095 22.5222 0.287867C22.3795 0.430638 22.3344 0.620423 22.3344 0.8H22.9344ZM23.0344 0.699998C23.1415 0.699998 23.1658 0.724957 23.1626 0.72198C23.1539 0.714072 23.1744 0.720667 23.1744 0.8H23.7744C23.7744 0.612664 23.7215 0.419258 23.5662 0.278017C23.4162 0.141706 23.2206 0.0999977 23.0344 0.0999977V0.699998ZM23.1744 0.8V27.16H23.7744V0.8H23.1744ZM23.4744 27.46H32.5144V26.86H23.4744V27.46ZM32.5144 27.46C32.6015 27.46 32.6117 27.4816 32.6022 27.4721C32.5928 27.4627 32.6144 27.4729 32.6144 27.56H33.2144C33.2144 27.3804 33.1693 27.1906 33.0265 27.0479C32.8837 26.9051 32.694 26.86 32.5144 26.86V27.46ZM32.6144 27.56C32.6144 27.6671 32.5894 27.6915 32.5924 27.6882C32.6003 27.6795 32.5937 27.7 32.5144 27.7V28.3C32.7017 28.3 32.8951 28.2472 33.0364 28.0918C33.1727 27.9419 33.2144 27.7462 33.2144 27.56H32.6144ZM32.5144 27.7H23.0344V28.3H32.5144V27.7ZM34.3784 24.56L34.1119 24.6977L34.1131 24.7L34.3784 24.56ZM34.3784 3.84L34.1131 3.70003L34.1119 3.70233L34.3784 3.84ZM45.2184 3.84L44.9519 3.97767L44.9531 3.97996L45.2184 3.84ZM45.2184 24.56L44.9531 24.42L44.9519 24.4223L45.2184 24.56ZM44.5784 23.92L44.3089 23.7883L44.5784 23.92ZM44.5784 4.48L44.3089 4.61165L44.5784 4.48ZM35.0584 4.48L34.7901 4.34583L34.7889 4.34835L35.0584 4.48ZM35.0584 23.92L34.7889 24.0517L34.7901 24.0542L35.0584 23.92ZM39.8184 27.9C37.6041 27.9 35.8825 26.7684 34.6438 24.42L34.1131 24.7C35.4344 27.2049 37.3394 28.5 39.8184 28.5V27.9ZM34.645 24.4223C33.4234 22.0571 32.7984 18.6592 32.7984 14.2H32.1984C32.1984 18.7008 32.8268 22.2095 34.1119 24.6977L34.645 24.4223ZM32.7984 14.2C32.7984 9.74075 33.4234 6.34286 34.645 3.97767L34.1119 3.70233C32.8268 6.19047 32.1984 9.69925 32.1984 14.2H32.7984ZM34.6438 3.97996C35.8825 1.63156 37.6041 0.499998 39.8184 0.499998V-0.100002C37.3394 -0.100002 35.4344 1.1951 34.1131 3.70003L34.6438 3.97996ZM39.8184 0.499998C40.9371 0.499998 41.9143 0.788217 42.7608 1.35876C43.6096 1.93092 44.3425 2.79774 44.9519 3.97767L45.485 3.70233C44.8411 2.45559 44.0473 1.50241 43.0961 0.861237C42.1425 0.218446 41.0464 -0.100002 39.8184 -0.100002V0.499998ZM44.9531 3.97996C46.2003 6.34443 46.8384 9.74136 46.8384 14.2H47.4384C47.4384 9.69864 46.7966 6.1889 45.4838 3.70003L44.9531 3.97996ZM46.8384 14.2C46.8384 18.6586 46.2003 22.0556 44.9531 24.42L45.4838 24.7C46.7966 22.2111 47.4384 18.7014 47.4384 14.2H46.8384ZM44.9519 24.4223C44.3425 25.6023 43.6096 26.4691 42.7608 27.0412C41.9143 27.6118 40.9371 27.9 39.8184 27.9V28.5C41.0464 28.5 42.1425 28.1816 43.0961 27.5388C44.0473 26.8976 44.8411 25.9444 45.485 24.6977L44.9519 24.4223ZM39.8184 27.66C40.9049 27.66 41.8771 27.3553 42.7242 26.7432C43.5678 26.1335 44.2727 25.2296 44.848 24.0517L44.3089 23.7883C43.7641 24.9037 43.1158 25.7198 42.3727 26.2568C41.6331 26.7913 40.7853 27.06 39.8184 27.06V27.66ZM44.848 24.0517C45.9969 21.6992 46.5584 18.4065 46.5584 14.2H45.9584C45.9584 18.3668 45.4 21.5542 44.3089 23.7883L44.848 24.0517ZM46.5584 14.2C46.5584 9.99347 45.9969 6.70083 44.848 4.34835L44.3089 4.61165C45.4 6.84584 45.9584 10.0332 45.9584 14.2H46.5584ZM44.848 4.34835C44.2727 3.1704 43.5678 2.26651 42.7242 1.65685C41.8771 1.04468 40.9049 0.739999 39.8184 0.739999V1.34C40.7853 1.34 41.6331 1.60865 42.3727 2.14315C43.1158 2.68015 43.7641 3.49627 44.3089 4.61165L44.848 4.34835ZM39.8184 0.739999C37.6462 0.739999 35.9715 1.98299 34.7901 4.34584L35.3268 4.61416C36.4387 2.39034 37.9373 1.34 39.8184 1.34V0.739999ZM34.7889 4.34835C33.64 6.70083 33.0784 9.99347 33.0784 14.2H33.6784C33.6784 10.0332 34.2369 6.84584 35.328 4.61165L34.7889 4.34835ZM33.0784 14.2C33.0784 18.4065 33.64 21.6992 34.7889 24.0517L35.328 23.7883C34.2369 21.5542 33.6784 18.3668 33.6784 14.2H33.0784ZM34.7901 24.0542C35.9715 26.417 37.6462 27.66 39.8184 27.66V27.06C37.9373 27.06 36.4387 26.0097 35.3268 23.7858L34.7901 24.0542ZM51.07 14.6H51.37V14.3725L51.1509 14.3111L51.07 14.6ZM49.39 13.84L49.2008 14.0728L49.2087 14.0792L49.217 14.0851L49.39 13.84ZM49.43 11.6L49.2958 11.3316L49.2896 11.3349L49.43 11.6ZM51.07 11.12L51.1088 11.4175L51.37 11.3834V11.12H51.07ZM60.11 2.36L59.8635 2.53104L59.8659 2.53437L60.11 2.36ZM60.63 11.12L60.3656 10.9781L60.363 10.9832L60.63 11.12ZM58.27 13.76L58.1051 13.5094L57.8138 13.701L58.0468 13.9604L58.27 13.76ZM60.87 19.12L60.5788 19.192L60.5788 19.1921L60.87 19.12ZM62.95 27.52L62.6586 27.5922L62.6615 27.6024L62.95 27.52ZM62.83 27.92L62.9414 28.1985L62.9637 28.1896L62.9843 28.1772L62.83 27.92ZM62.11 27.68L61.8188 27.7521L61.819 27.7528L62.11 27.68ZM60.03 19.28L59.7383 19.3503L59.7388 19.3521L60.03 19.28ZM57.55 14.16L57.7693 13.9553L57.6164 13.7914L57.4158 13.8917L57.55 14.16ZM51.91 14.8L51.9574 14.5038L51.61 14.4482V14.8H51.91ZM51.91 1.24V0.939999H51.61V1.24H51.91ZM51.91 11.08H51.61V11.38H51.91V11.08ZM57.71 13.16L57.5059 13.3798L57.6756 13.5375L57.8711 13.4131L57.71 13.16ZM59.83 10.88L60.0923 11.0257L60.0939 11.0227L59.83 10.88ZM59.55 3.04L59.2927 3.19436L59.2943 3.1969L59.55 3.04ZM56.95 13.6L57.0711 13.8745L57.5117 13.6801L57.143 13.3703L56.95 13.6ZM51.91 11.92V11.62H51.61V11.92H51.91ZM51.91 13.96H51.61V14.2025L51.8471 14.2533L51.91 13.96ZM49.99 13.24L49.8178 13.486L49.8289 13.4931L49.99 13.24ZM51.07 13.72L50.9805 14.0063L51.37 14.1281V13.72H51.07ZM51.07 11.96H51.37V11.6393L51.05 11.6607L51.07 11.96ZM50.03 12.16L49.9275 11.8781V11.8781L50.03 12.16ZM51.47 27.7C51.3829 27.7 51.3727 27.6784 51.3821 27.6879C51.3916 27.6973 51.37 27.6871 51.37 27.6H50.77C50.77 27.7796 50.8151 27.9694 50.9579 28.1121C51.1006 28.2549 51.2904 28.3 51.47 28.3V27.7ZM51.37 27.6V14.6H50.77V27.6H51.37ZM51.1509 14.3111C50.5094 14.1315 49.9824 13.891 49.563 13.5949L49.217 14.0851C49.7043 14.429 50.2973 14.6952 50.9891 14.8889L51.1509 14.3111ZM49.5792 13.6072C49.2158 13.3119 49.05 12.9679 49.05 12.56H48.45C48.45 13.1654 48.7108 13.6747 49.2008 14.0728L49.5792 13.6072ZM49.05 12.56C49.05 12.3037 49.1827 12.0704 49.5704 11.8651L49.2896 11.3349C48.7706 11.6096 48.45 12.0163 48.45 12.56H49.05ZM49.5642 11.8683C50.01 11.6454 50.5237 11.4938 51.1088 11.4175L51.0312 10.8225C50.3896 10.9062 49.81 11.0746 49.2958 11.3317L49.5642 11.8683ZM51.37 11.12V0.8H50.77V11.12H51.37ZM51.37 0.8C51.37 0.712909 51.3916 0.702693 51.3821 0.71213C51.3727 0.721567 51.3829 0.699998 51.47 0.699998V0.0999977C51.2904 0.0999977 51.1006 0.145095 50.9579 0.287867C50.8151 0.430638 50.77 0.620423 50.77 0.8H51.37ZM51.47 0.699998H56.15V0.0999977H51.47V0.699998ZM56.15 0.699998C57.7954 0.699998 59.0186 1.31331 59.8635 2.53102L60.3565 2.18897C59.3881 0.793355 57.9713 0.0999977 56.15 0.0999977V0.699998ZM59.8659 2.53437C60.7539 3.77759 61.21 5.39174 61.21 7.4H61.81C61.81 5.3016 61.3328 3.55574 60.3541 2.18563L59.8659 2.53437ZM61.21 7.4C61.21 8.74308 60.9263 9.93337 60.3657 10.9782L60.8943 11.2618C61.5071 10.12 61.81 8.83025 61.81 7.4H61.21ZM60.363 10.9832C59.8263 12.031 59.0746 12.8716 58.1051 13.5094L58.4349 14.0106C59.4921 13.3151 60.3137 12.3956 60.897 11.2568L60.363 10.9832ZM58.0468 13.9604C59.1782 15.2204 60.0268 16.9579 60.5788 19.192L61.1612 19.048C60.5932 16.7488 59.7085 14.9129 58.4932 13.5596L58.0468 13.9604ZM60.5788 19.1921L62.6588 27.5921L63.2412 27.4479L61.1612 19.0479L60.5788 19.1921ZM62.6615 27.6024C62.6784 27.6615 62.6709 27.6797 62.6727 27.6738C62.6738 27.6701 62.6763 27.665 62.6797 27.6608C62.6827 27.6571 62.683 27.6584 62.6757 27.6628L62.9843 28.1772C63.107 28.1036 63.2033 27.993 63.2473 27.8462C63.2891 27.7069 63.2749 27.5652 63.2385 27.4376L62.6615 27.6024ZM62.7186 27.6415C62.5971 27.6901 62.5327 27.7 62.51 27.7V28.3C62.6473 28.3 62.7963 28.2566 62.9414 28.1985L62.7186 27.6415ZM62.51 27.7C62.4541 27.7 62.4387 27.6868 62.4374 27.6857C62.4351 27.6839 62.4164 27.6686 62.401 27.6072L61.819 27.7528C61.8569 27.9047 61.9315 28.0494 62.0626 28.1543C62.1946 28.2599 62.3526 28.3 62.51 28.3V27.7ZM62.4012 27.6079L60.3212 19.2079L59.7388 19.3521L61.8188 27.7521L62.4012 27.6079ZM60.3217 19.2097C59.7807 16.9646 58.9357 15.205 57.7693 13.9553L57.3307 14.3647C58.4043 15.515 59.2127 17.1687 59.7383 19.3503L60.3217 19.2097ZM57.4158 13.8917C56.3938 14.4027 55.2669 14.66 54.03 14.66V15.26C55.3531 15.26 56.5728 14.984 57.6842 14.4283L57.4158 13.8917ZM54.03 14.66C53.2976 14.66 52.6068 14.6077 51.9574 14.5038L51.8626 15.0962C52.5465 15.2057 53.2691 15.26 54.03 15.26V14.66ZM51.61 14.8V27.6H52.21V14.8H51.61ZM51.61 27.6C51.61 27.6793 51.5895 27.6859 51.5982 27.678C51.6015 27.675 51.5771 27.7 51.47 27.7V28.3C51.6562 28.3 51.8519 28.2583 52.0018 28.122C52.1572 27.9807 52.21 27.7873 52.21 27.6H51.61ZM56.15 0.939999H51.91V1.54H56.15V0.939999ZM51.61 1.24V11.08H52.21V1.24H51.61ZM51.91 11.38C54.2209 11.38 56.0771 12.0531 57.5059 13.3798L57.9141 12.9402C56.3563 11.4936 54.3457 10.78 51.91 10.78V11.38ZM57.8711 13.4131C58.7955 12.8249 59.536 12.027 60.0922 11.0257L59.5678 10.7343C59.0574 11.653 58.3845 12.3751 57.5489 12.9069L57.8711 13.4131ZM60.0939 11.0227C60.655 9.98459 60.93 8.77375 60.93 7.4H60.33C60.33 8.69291 60.0716 9.80207 59.5661 10.7373L60.0939 11.0227ZM60.93 7.4C60.93 5.6255 60.5613 4.11445 59.8057 2.88309L59.2943 3.1969C59.9787 4.31222 60.33 5.70783 60.33 7.4H60.93ZM59.8072 2.88565C59.0265 1.58442 57.7887 0.939999 56.15 0.939999V1.54C57.6046 1.54 58.6335 2.09558 59.2928 3.19435L59.8072 2.88565ZM54.03 14.5C55.1096 14.5 56.1244 14.2921 57.0711 13.8745L56.8289 13.3255C55.9623 13.7079 55.0304 13.9 54.03 13.9V14.5ZM57.143 13.3703C55.7469 12.1976 53.9951 11.62 51.91 11.62V12.22C53.8783 12.22 55.4864 12.7624 56.757 13.8297L57.143 13.3703ZM51.61 11.92V13.96H52.21V11.92H51.61ZM51.8471 14.2533C52.6115 14.4171 53.3394 14.5 54.03 14.5V13.9C53.3873 13.9 52.7018 13.8229 51.9729 13.6667L51.8471 14.2533ZM49.29 12.6C49.29 12.9706 49.5023 13.2648 49.818 13.4858L50.162 12.9942C49.9444 12.8419 49.89 12.7094 49.89 12.6H49.29ZM49.8289 13.4931C50.1499 13.6973 50.5354 13.8672 50.9805 14.0063L51.1595 13.4337C50.7513 13.3061 50.4168 13.156 50.1511 12.9869L49.8289 13.4931ZM51.37 13.72V11.96H50.77V13.72H51.37ZM51.05 11.6607C50.6294 11.6887 50.2537 11.7594 49.9275 11.8781L50.1325 12.4419C50.393 12.3472 50.7106 12.2846 51.09 12.2593L51.05 11.6607ZM49.9275 11.8781C49.6052 11.9953 49.29 12.213 49.29 12.6H49.89C49.89 12.5954 49.8882 12.5861 49.9121 12.5621C49.9428 12.5314 50.0081 12.4872 50.1325 12.4419L49.9275 11.8781ZM67.1853 1.24V0.939999H66.8853V1.24H67.1853ZM67.1853 12.72H66.8853V13.02H67.1853V12.72ZM67.1853 13.56V13.26H66.8853V13.56H67.1853ZM67.1853 27.16H66.8853V27.46H67.1853V27.16ZM66.7453 27.7C66.6582 27.7 66.648 27.6784 66.6574 27.6879C66.6669 27.6973 66.6453 27.6871 66.6453 27.6H66.0453C66.0453 27.7796 66.0904 27.9694 66.2332 28.1121C66.376 28.2549 66.5657 28.3 66.7453 28.3V27.7ZM66.6453 27.6V0.8H66.0453V27.6H66.6453ZM66.6453 0.8C66.6453 0.712909 66.6669 0.702693 66.6574 0.71213C66.648 0.721567 66.6582 0.699998 66.7453 0.699998V0.0999977C66.5657 0.0999977 66.376 0.145095 66.2332 0.287867C66.0904 0.430638 66.0453 0.620423 66.0453 0.8H66.6453ZM66.7453 0.699998H74.3053V0.0999977H66.7453V0.699998ZM74.3053 0.699998C74.3924 0.699998 74.4026 0.721567 74.3932 0.71213C74.3837 0.702693 74.4053 0.712909 74.4053 0.8H75.0053C75.0053 0.620422 74.9602 0.430637 74.8174 0.287866C74.6747 0.145095 74.4849 0.0999977 74.3053 0.0999977V0.699998ZM74.4053 0.8C74.4053 0.907121 74.3804 0.931471 74.3833 0.928197C74.3912 0.919498 74.3846 0.939999 74.3053 0.939999V1.54C74.4926 1.54 74.6861 1.48717 74.8273 1.3318C74.9636 1.18186 75.0053 0.986211 75.0053 0.8H74.4053ZM74.3053 0.939999H67.1853V1.54H74.3053V0.939999ZM66.8853 1.24V12.72H67.4853V1.24H66.8853ZM67.1853 13.02H73.9053V12.42H67.1853V13.02ZM73.9053 13.02C73.9924 13.02 74.0026 13.0416 73.9932 13.0321C73.9837 13.0227 74.0053 13.0329 74.0053 13.12H74.6053C74.6053 12.9404 74.5602 12.7506 74.4174 12.6079C74.2747 12.4651 74.0849 12.42 73.9053 12.42V13.02ZM74.0053 13.12C74.0053 13.2271 73.9804 13.2515 73.9833 13.2482C73.9912 13.2395 73.9846 13.26 73.9053 13.26V13.86C74.0927 13.86 74.2861 13.8072 74.4273 13.6518C74.5636 13.5019 74.6053 13.3062 74.6053 13.12H74.0053ZM73.9053 13.26H67.1853V13.86H73.9053V13.26ZM66.8853 13.56V27.16H67.4853V13.56H66.8853ZM67.1853 27.46H74.3053V26.86H67.1853V27.46ZM74.3053 27.46C74.3924 27.46 74.4026 27.4816 74.3932 27.4721C74.3837 27.4627 74.4053 27.4729 74.4053 27.56H75.0053C75.0053 27.3804 74.9602 27.1906 74.8174 27.0479C74.6747 26.9051 74.4849 26.86 74.3053 26.86V27.46ZM74.4053 27.56C74.4053 27.6671 74.3804 27.6915 74.3833 27.6882C74.3912 27.6795 74.3846 27.7 74.3053 27.7V28.3C74.4926 28.3 74.6861 28.2472 74.8273 28.0918C74.9636 27.9419 75.0053 27.7462 75.0053 27.56H74.4053ZM74.3053 27.7H66.7453V28.3H74.3053V27.7ZM79.4891 0.639999L79.7658 0.524079L79.7619 0.514817L79.7574 0.505836L79.4891 0.639999ZM89.9291 25.56L89.6524 25.6759L90.2291 25.56H89.9291ZM89.9691 27.76L90.2537 27.6651L90.2501 27.6545L90.2458 27.6441L89.9691 27.76ZM79.5291 2.84L79.8058 2.72408L79.2291 2.84H79.5291ZM79.0891 27.7C79.002 27.7 78.9918 27.6784 79.0012 27.6879C79.0106 27.6973 78.9891 27.6871 78.9891 27.6H78.3891C78.3891 27.7796 78.4342 27.9694 78.5769 28.1121C78.7197 28.2549 78.9095 28.3 79.0891 28.3V27.7ZM78.9891 27.6V0.8H78.3891V27.6H78.9891ZM78.9891 0.8C78.9891 0.712909 79.0106 0.702693 79.0012 0.71213C78.9918 0.721567 79.002 0.699998 79.0891 0.699998V0.0999977C78.9095 0.0999977 78.7197 0.145095 78.5769 0.287867C78.4342 0.430638 78.3891 0.620423 78.3891 0.8H78.9891ZM79.0891 0.699998C79.139 0.699998 79.1632 0.710362 79.1747 0.717246C79.1854 0.723678 79.2023 0.737338 79.2207 0.774163L79.7574 0.505836C79.6958 0.382659 79.606 0.276319 79.4834 0.202751C79.3615 0.129633 79.2258 0.0999977 79.0891 0.0999977V0.699998ZM79.2124 0.75592L89.6524 25.6759L90.2058 25.4441L79.7658 0.524079L79.2124 0.75592ZM90.2291 25.56V0.8H89.6291V25.56H90.2291ZM90.2291 0.8C90.2291 0.712909 90.2506 0.702693 90.2412 0.71213C90.2318 0.721567 90.242 0.699998 90.3291 0.699998V0.0999977C90.1495 0.0999977 89.9597 0.145095 89.8169 0.287867C89.6742 0.430638 89.6291 0.620423 89.6291 0.8H90.2291ZM90.3291 0.699998C90.4362 0.699998 90.4605 0.724957 90.4573 0.72198C90.4486 0.714072 90.4691 0.720668 90.4691 0.8H91.0691C91.0691 0.612664 91.0162 0.419258 90.8609 0.278017C90.7109 0.141706 90.5153 0.0999977 90.3291 0.0999977V0.699998ZM90.4691 0.8V27.6H91.0691V0.8H90.4691ZM90.4691 27.6C90.4691 27.6793 90.4486 27.6859 90.4573 27.678C90.4605 27.675 90.4362 27.7 90.3291 27.7V28.3C90.5153 28.3 90.7109 28.2583 90.8609 28.122C91.0162 27.9807 91.0691 27.7873 91.0691 27.6H90.4691ZM90.3291 27.7C90.3036 27.7 90.287 27.6972 90.2773 27.6947C90.2725 27.6935 90.2695 27.6923 90.2678 27.6916C90.2669 27.6912 90.2663 27.6909 90.266 27.6907C90.2657 27.6905 90.2655 27.6904 90.2655 27.6904C90.2654 27.6904 90.2655 27.6904 90.2656 27.6905C90.2657 27.6906 90.2658 27.6906 90.2658 27.6907C90.2659 27.6908 90.2656 27.6905 90.2648 27.6894C90.2632 27.6872 90.2587 27.6802 90.2537 27.6651L89.6845 27.8549C89.7285 27.987 89.8081 28.1066 89.9327 28.1896C90.0546 28.2709 90.1938 28.3 90.3291 28.3V27.7ZM90.2458 27.6441L79.8058 2.72408L79.2524 2.95592L89.6924 27.8759L90.2458 27.6441ZM79.2291 2.84V27.6H79.8291V2.84H79.2291ZM79.2291 27.6C79.2291 27.6793 79.2086 27.6859 79.2173 27.678C79.2205 27.675 79.1962 27.7 79.0891 27.7V28.3C79.2753 28.3 79.4709 28.2583 79.6209 28.122C79.7762 27.9807 79.8291 27.7873 79.8291 27.6H79.2291ZM96.6841 24.56L96.9494 24.42L96.6841 24.56ZM96.6841 3.84L96.9494 3.97996L96.6841 3.84ZM104.324 0.559998L104.226 0.843513L104.229 0.844603L104.324 0.559998ZM106.244 1.64L106.049 1.86778L106.056 1.87413L106.064 1.88L106.244 1.64ZM105.684 2.28L105.896 2.06787L105.887 2.05879L105.877 2.05053L105.684 2.28ZM104.004 1.36L103.905 1.64357L103.917 1.647L104.004 1.36ZM97.3241 4.48L97.0557 4.34583L97.0545 4.34835L97.3241 4.48ZM97.3241 23.92L97.0545 24.0517L97.0557 24.0542L97.3241 23.92ZM104.004 27.08L104.091 27.3672L104.103 27.3633L104.004 27.08ZM105.684 26.12L105.877 26.3495L105.887 26.3412L105.896 26.3321L105.684 26.12ZM106.244 26.76L106.064 26.52L106.056 26.5259L106.049 26.5322L106.244 26.76ZM104.324 27.84L104.229 27.5554L104.226 27.5565L104.324 27.84ZM102.164 27.9C101.031 27.9 100.04 27.6114 99.1801 27.0401C98.3177 26.4673 97.5718 25.5999 96.9494 24.42L96.4187 24.7C97.0763 25.9467 97.8837 26.8993 98.8481 27.5399C99.8147 28.1819 100.923 28.5 102.164 28.5V27.9ZM96.9494 24.42C95.7021 22.0554 95.0641 18.6716 95.0641 14.24H94.4641C94.4641 18.715 95.106 22.2113 96.4187 24.7L96.9494 24.42ZM95.0641 14.24C95.0641 9.75434 95.7023 6.34424 96.9494 3.97996L96.4187 3.70003C95.1058 6.18909 94.4641 9.71233 94.4641 14.24H95.0641ZM96.9494 3.97996C97.5718 2.80005 98.3177 1.93267 99.1801 1.35989C100.04 0.788604 101.031 0.499998 102.164 0.499998V-0.100002C100.923 -0.100002 99.8147 0.218058 98.8481 0.860103C97.8837 1.50066 97.0763 2.45328 96.4187 3.70003L96.9494 3.97996ZM102.164 0.499998C102.878 0.499998 103.565 0.614614 104.226 0.843494L104.422 0.276502C103.697 0.0253814 102.944 -0.100002 102.164 -0.100002V0.499998ZM104.229 0.844603C104.913 1.07269 105.519 1.41377 106.049 1.86778L106.439 1.41222C105.849 0.906228 105.175 0.527302 104.419 0.275393L104.229 0.844603ZM106.064 1.88C106.095 1.90334 106.104 1.92109 106.104 1.96H106.704C106.704 1.73224 106.606 1.53666 106.424 1.4L106.064 1.88ZM106.104 1.96C106.104 2.00923 106.098 2.04009 106.092 2.05763C106.087 2.07372 106.082 2.07785 106.082 2.07787C106.082 2.07788 106.078 2.08253 106.062 2.08789C106.044 2.09374 106.013 2.1 105.964 2.1V2.7C106.157 2.7 106.357 2.65157 106.506 2.50213C106.656 2.35269 106.704 2.15291 106.704 1.96H106.104ZM105.964 2.1C105.942 2.1 105.924 2.09539 105.896 2.06787L105.472 2.49213C105.604 2.62461 105.773 2.7 105.964 2.7V2.1ZM105.877 2.05053C105.341 1.5986 104.745 1.27187 104.091 1.073L103.917 1.647C104.49 1.82146 105.014 2.10806 105.491 2.50947L105.877 2.05053ZM104.103 1.07665C103.459 0.852946 102.813 0.739999 102.164 0.739999V1.34C102.742 1.34 103.322 1.44039 103.906 1.64335L104.103 1.07665ZM102.164 0.739999C99.9418 0.739999 98.239 1.97931 97.0557 4.34584L97.5924 4.61416C98.7025 2.39402 100.226 1.34 102.164 1.34V0.739999ZM97.0545 4.34835C95.9055 6.70102 95.3441 10.0072 95.3441 14.24H95.9441C95.9441 10.0462 96.5026 6.84565 97.5936 4.61165L97.0545 4.34835ZM95.3441 14.24C95.3441 18.4202 95.9057 21.6994 97.0545 24.0517L97.5936 23.7883C96.5024 21.554 95.9441 18.3798 95.9441 14.24H95.3441ZM97.0557 24.0542C98.239 26.4207 99.9418 27.66 102.164 27.66V27.06C100.226 27.06 98.7025 26.006 97.5924 23.7858L97.0557 24.0542ZM102.164 27.66C102.808 27.66 103.451 27.5619 104.091 27.367L103.917 26.793C103.33 26.9714 102.746 27.06 102.164 27.06V27.66ZM104.103 27.3633C104.751 27.1377 105.343 26.7992 105.877 26.3495L105.491 25.8905C105.012 26.2941 104.484 26.5956 103.906 26.7967L104.103 27.3633ZM105.896 26.3321C105.924 26.3046 105.942 26.3 105.964 26.3V25.7C105.773 25.7 105.604 25.7754 105.472 25.9079L105.896 26.3321ZM105.964 26.3C106.013 26.3 106.044 26.3063 106.062 26.3121C106.078 26.3175 106.082 26.3221 106.082 26.3221C106.082 26.3221 106.087 26.3263 106.092 26.3424C106.098 26.3599 106.104 26.3908 106.104 26.44H106.704C106.704 26.2471 106.656 26.0473 106.506 25.8979C106.357 25.7484 106.157 25.7 105.964 25.7V26.3ZM106.104 26.44C106.104 26.4789 106.095 26.4967 106.064 26.52L106.424 27C106.606 26.8633 106.704 26.6678 106.704 26.44H106.104ZM106.049 26.5322C105.519 26.9862 104.913 27.3273 104.229 27.5554L104.419 28.1246C105.175 27.8727 105.849 27.4938 106.439 26.9878L106.049 26.5322ZM104.226 27.5565C103.565 27.7854 102.878 27.9 102.164 27.9V28.5C102.944 28.5 103.697 28.3746 104.422 28.1235L104.226 27.5565ZM110.613 27.7C110.525 27.7 110.515 27.6784 110.525 27.6879C110.534 27.6973 110.512 27.6871 110.512 27.6H109.912C109.912 27.7796 109.958 27.9694 110.1 28.1121C110.243 28.2549 110.433 28.3 110.613 28.3V27.7ZM110.512 27.6V0.8H109.912V27.6H110.512ZM110.512 0.8C110.512 0.712909 110.534 0.702693 110.525 0.71213C110.515 0.721567 110.525 0.699998 110.613 0.699998V0.0999977C110.433 0.0999977 110.243 0.145095 110.1 0.287867C109.958 0.430638 109.912 0.620423 109.912 0.8H110.512ZM110.613 0.699998C110.72 0.699998 110.744 0.724957 110.741 0.72198C110.732 0.714072 110.753 0.720667 110.753 0.8H111.353C111.353 0.612664 111.3 0.419258 111.144 0.278017C110.994 0.141706 110.799 0.0999977 110.613 0.0999977V0.699998ZM110.753 0.8V27.6H111.353V0.8H110.753ZM110.753 27.6C110.753 27.6793 110.732 27.6859 110.741 27.678C110.744 27.675 110.72 27.7 110.613 27.7V28.3C110.799 28.3 110.994 28.2583 111.144 28.122C111.3 27.9807 111.353 27.7873 111.353 27.6H110.753ZM114.118 27.84L113.839 27.9514L113.854 27.9883L113.878 28.02L114.118 27.84ZM114.077 27.48L113.788 27.402L113.786 27.4072L114.077 27.48ZM121.278 0.719998L121.567 0.797956L121.569 0.792759L121.278 0.719998ZM122.118 0.719998L121.826 0.792773L121.828 0.798347L122.118 0.719998ZM129.357 27.48L129.068 27.5583L129.076 27.5873L129.089 27.6142L129.357 27.48ZM129.318 27.84L129.557 28.02L129.567 28.0076L129.575 27.9943L129.318 27.84ZM128.557 27.68L128.849 27.6072L128.847 27.6013L128.557 27.68ZM125.717 17.24L126.007 17.1613L125.947 16.94H125.717V17.24ZM117.677 17.24V16.94H117.447L117.388 17.1623L117.677 17.24ZM114.878 27.68L114.588 27.6023L114.586 27.6072L114.878 27.68ZM117.918 16.4L117.628 16.3218L117.526 16.7H117.918V16.4ZM125.518 16.4V16.7H125.909L125.807 16.3218L125.518 16.4ZM121.717 2.32L122.007 2.24183L121.717 1.16865L121.428 2.24183L121.717 2.32ZM114.478 27.7C114.391 27.7 114.369 27.6756 114.357 27.66L113.878 28.02C114.026 28.2177 114.244 28.3 114.478 28.3V27.7ZM114.396 27.7286C114.359 27.636 114.361 27.5819 114.369 27.5528L113.786 27.4072C113.74 27.5914 113.769 27.7774 113.839 27.9514L114.396 27.7286ZM114.367 27.5579L121.567 0.797944L120.988 0.642053L113.788 27.4021L114.367 27.5579ZM121.569 0.792759C121.584 0.731349 121.603 0.71607 121.605 0.714258C121.606 0.713201 121.622 0.699998 121.677 0.699998V0.0999977C121.52 0.0999977 121.362 0.140128 121.23 0.245737C121.099 0.350593 121.024 0.495314 120.986 0.647238L121.569 0.792759ZM121.677 0.699998C121.754 0.699998 121.783 0.716985 121.791 0.722618C121.796 0.726222 121.813 0.739312 121.826 0.792759L122.409 0.647238C122.369 0.487351 122.286 0.34044 122.144 0.237377C122.005 0.136344 121.841 0.0999977 121.677 0.0999977V0.699998ZM121.828 0.798347L129.068 27.5583L129.647 27.4017L122.407 0.641649L121.828 0.798347ZM129.089 27.6142C129.09 27.6159 129.09 27.6158 129.09 27.6146C129.089 27.6135 129.09 27.6139 129.089 27.6169C129.089 27.6235 129.084 27.6457 129.06 27.6857L129.575 27.9943C129.689 27.8032 129.739 27.5718 129.626 27.3458L129.089 27.6142ZM129.077 27.66C129.066 27.6756 129.044 27.7 128.958 27.7V28.3C129.191 28.3 129.409 28.2177 129.557 28.02L129.077 27.66ZM128.958 27.7C128.902 27.7 128.886 27.6868 128.885 27.6857C128.883 27.6839 128.864 27.6686 128.849 27.6072L128.266 27.7528C128.304 27.9047 128.379 28.0494 128.51 28.1543C128.642 28.2599 128.8 28.3 128.958 28.3V27.7ZM128.847 27.6013L126.007 17.1613L125.428 17.3187L128.268 27.7587L128.847 27.6013ZM125.717 16.94H117.677V17.54H125.717V16.94ZM117.388 17.1623L114.588 27.6023L115.167 27.7577L117.967 17.3177L117.388 17.1623ZM114.586 27.6072C114.571 27.6686 114.552 27.6839 114.55 27.6857C114.549 27.6868 114.533 27.7 114.478 27.7V28.3C114.635 28.3 114.793 28.2599 114.925 28.1543C115.056 28.0494 115.131 27.9047 115.169 27.7528L114.586 27.6072ZM117.918 16.7H125.518V16.1H117.918V16.7ZM125.807 16.3218L122.007 2.24183L121.428 2.39817L125.228 16.4782L125.807 16.3218ZM121.428 2.24183L117.628 16.3218L118.207 16.4782L122.007 2.39817L121.428 2.24183ZM57.9666 33.24V32.94H57.6666V33.24H57.9666ZM57.9666 44.72H57.6666V45.02H57.9666V44.72ZM57.9666 45.56V45.26H57.6666V45.56H57.9666ZM57.5266 59.7C57.4395 59.7 57.4293 59.6784 57.4387 59.6879C57.4481 59.6973 57.4266 59.6871 57.4266 59.6H56.8266C56.8266 59.7796 56.8717 59.9694 57.0144 60.1121C57.1572 60.2549 57.347 60.3 57.5266 60.3V59.7ZM57.4266 59.6V32.8H56.8266V59.6H57.4266ZM57.4266 32.8C57.4266 32.7129 57.4481 32.7027 57.4387 32.7121C57.4293 32.7216 57.4395 32.7 57.5266 32.7V32.1C57.347 32.1 57.1572 32.1451 57.0144 32.2879C56.8717 32.4306 56.8266 32.6204 56.8266 32.8H57.4266ZM57.5266 32.7H65.0866V32.1H57.5266V32.7ZM65.0866 32.7C65.1737 32.7 65.1839 32.7216 65.1744 32.7121C65.165 32.7027 65.1866 32.7129 65.1866 32.8H65.7866C65.7866 32.6204 65.7415 32.4306 65.5987 32.2879C65.4559 32.1451 65.2661 32.1 65.0866 32.1V32.7ZM65.1866 32.8C65.1866 32.9071 65.1616 32.9315 65.1646 32.9282C65.1725 32.9195 65.1659 32.94 65.0866 32.94V33.54C65.2739 33.54 65.4673 33.4872 65.6085 33.3318C65.7449 33.1819 65.7866 32.9862 65.7866 32.8H65.1866ZM65.0866 32.94H57.9666V33.54H65.0866V32.94ZM57.6666 33.24V44.72H58.2666V33.24H57.6666ZM57.9666 45.02H64.6866V44.42H57.9666V45.02ZM64.6866 45.02C64.7737 45.02 64.7839 45.0416 64.7744 45.0321C64.765 45.0227 64.7866 45.0329 64.7866 45.12H65.3866C65.3866 44.9404 65.3415 44.7506 65.1987 44.6079C65.0559 44.4651 64.8661 44.42 64.6866 44.42V45.02ZM64.7866 45.12C64.7866 45.2271 64.7616 45.2515 64.7646 45.2482C64.7725 45.2395 64.7659 45.26 64.6866 45.26V45.86C64.8739 45.86 65.0673 45.8072 65.2085 45.6518C65.3449 45.5019 65.3866 45.3062 65.3866 45.12H64.7866ZM64.6866 45.26H57.9666V45.86H64.6866V45.26ZM57.6666 45.56V59.6H58.2666V45.56H57.6666ZM57.6666 59.6C57.6666 59.6793 57.6461 59.6859 57.6548 59.678C57.658 59.675 57.6337 59.7 57.5266 59.7V60.3C57.7128 60.3 57.9084 60.2583 58.0584 60.122C58.2137 59.9807 58.2666 59.7873 58.2666 59.6H57.6666ZM70.2797 58.32L70.0624 58.5269L70.065 58.5296L70.2797 58.32ZM70.9197 57.76L70.7046 57.9691L70.7076 57.9721L70.9197 57.76ZM78.8797 57.76L78.6675 57.5478L78.6646 57.5509L78.8797 57.76ZM79.5197 58.32L79.305 58.1104L79.3024 58.1131L79.5197 58.32ZM74.9197 59.7C72.9769 59.7 71.5166 59.1576 70.4944 58.1104L70.065 58.5296C71.2294 59.7224 72.8625 60.3 74.9197 60.3V59.7ZM70.4969 58.1131C69.4996 57.0659 68.9797 55.5501 68.9797 53.52H68.3797C68.3797 55.6499 68.9265 57.3341 70.0624 58.5269L70.4969 58.1131ZM68.9797 53.52V32.8H68.3797V53.52H68.9797ZM68.9797 32.8C68.9797 32.7129 69.0013 32.7027 68.9918 32.7121C68.9824 32.7216 68.9926 32.7 69.0797 32.7V32.1C68.9001 32.1 68.7103 32.1451 68.5676 32.2879C68.4248 32.4306 68.3797 32.6204 68.3797 32.8H68.9797ZM69.0797 32.7C69.1868 32.7 69.2112 32.725 69.2079 32.722C69.1992 32.7141 69.2197 32.7207 69.2197 32.8H69.8197C69.8197 32.6127 69.7669 32.4193 69.6115 32.278C69.4615 32.1417 69.2659 32.1 69.0797 32.1V32.7ZM69.2197 32.8V53.72H69.8197V32.8H69.2197ZM69.2197 53.72C69.2197 55.5075 69.7022 56.938 70.7046 57.9691L71.1348 57.5509C70.2706 56.662 69.8197 55.3991 69.8197 53.72H69.2197ZM70.7076 57.9721C71.7374 59.002 73.155 59.5 74.9197 59.5V58.9C73.271 58.9 72.0219 58.438 71.1318 57.5479L70.7076 57.9721ZM74.9197 59.5C76.6839 59.5 78.0905 59.0021 79.0948 57.9691L78.6646 57.5509C77.8022 58.4379 76.5688 58.9 74.9197 58.9V59.5ZM79.0918 57.9721C80.1225 56.9414 80.6197 55.5098 80.6197 53.72H80.0197C80.0197 55.3969 79.5568 56.6586 78.6676 57.5479L79.0918 57.9721ZM80.6197 53.72V32.8H80.0197V53.72H80.6197ZM80.6197 32.8C80.6197 32.7207 80.6402 32.7141 80.6315 32.722C80.6282 32.725 80.6526 32.7 80.7597 32.7V32.1C80.5735 32.1 80.3778 32.1417 80.2279 32.278C80.0725 32.4193 80.0197 32.6127 80.0197 32.8H80.6197ZM80.7597 32.7C80.8468 32.7 80.857 32.7216 80.8476 32.7121C80.8381 32.7027 80.8597 32.7129 80.8597 32.8H81.4597C81.4597 32.6204 81.4146 32.4306 81.2718 32.2879C81.1291 32.1451 80.9393 32.1 80.7597 32.1V32.7ZM80.8597 32.8V53.52H81.4597V32.8H80.8597ZM80.8597 53.52C80.8597 55.5482 80.3275 57.063 79.305 58.1104L79.7344 58.5296C80.8985 57.337 81.4597 55.6518 81.4597 53.52H80.8597ZM79.3024 58.1131C78.3078 59.1575 76.8629 59.7 74.9197 59.7V60.3C76.9765 60.3 78.5983 59.7225 79.7369 58.5269L79.3024 58.1131ZM85.4841 46.6H85.7841V46.3725L85.5649 46.3111L85.4841 46.6ZM83.8041 45.84L83.6149 46.0728L83.6228 46.0792L83.6311 46.0851L83.8041 45.84ZM83.8441 43.6L83.7099 43.3316L83.7037 43.3349L83.8441 43.6ZM85.4841 43.12L85.5229 43.4175L85.7841 43.3834V43.12H85.4841ZM94.5241 34.36L94.2776 34.531L94.2799 34.5344L94.5241 34.36ZM95.0441 43.12L94.7797 42.9781L94.7771 42.9832L95.0441 43.12ZM92.6841 45.76L92.5192 45.5094L92.2279 45.701L92.4608 45.9604L92.6841 45.76ZM95.2841 51.12L94.9928 51.192L94.9929 51.1921L95.2841 51.12ZM97.3641 59.52L97.0727 59.5922L97.0756 59.6024L97.3641 59.52ZM97.2441 59.92L97.3555 60.1985L97.3778 60.1896L97.3984 60.1772L97.2441 59.92ZM96.5241 59.68L96.2329 59.7521L96.233 59.7528L96.5241 59.68ZM94.4441 51.28L94.1524 51.3503L94.1529 51.3521L94.4441 51.28ZM91.9641 46.16L92.1834 45.9553L92.0304 45.7914L91.8299 45.8917L91.9641 46.16ZM86.3241 46.8L86.3715 46.5038L86.0241 46.4482V46.8H86.3241ZM86.3241 33.24V32.94H86.0241V33.24H86.3241ZM86.3241 43.08H86.0241V43.38H86.3241V43.08ZM92.1241 45.16L91.9199 45.3798L92.0897 45.5375L92.2851 45.4131L92.1241 45.16ZM94.2441 42.88L94.5063 43.0257L94.508 43.0227L94.2441 42.88ZM93.9641 35.04L93.7068 35.1944L93.7084 35.1969L93.9641 35.04ZM91.3641 45.6L91.4852 45.8745L91.9258 45.6801L91.557 45.3703L91.3641 45.6ZM86.3241 43.92V43.62H86.0241V43.92H86.3241ZM86.3241 45.96H86.0241V46.2025L86.2612 46.2533L86.3241 45.96ZM84.4041 45.24L84.2319 45.486L84.243 45.4931L84.4041 45.24ZM85.4841 45.72L85.3946 46.0063L85.7841 46.1281V45.72H85.4841ZM85.4841 43.96H85.7841V43.6393L85.4641 43.6607L85.4841 43.96ZM84.4441 44.16L84.3415 43.8781L84.4441 44.16ZM85.8841 59.7C85.797 59.7 85.7868 59.6784 85.7962 59.6879C85.8056 59.6973 85.7841 59.6871 85.7841 59.6H85.1841C85.1841 59.7796 85.2292 59.9694 85.3719 60.1121C85.5147 60.2549 85.7045 60.3 85.8841 60.3V59.7ZM85.7841 59.6V46.6H85.1841V59.6H85.7841ZM85.5649 46.3111C84.9234 46.1315 84.3965 45.891 83.9771 45.5949L83.6311 46.0851C84.1183 46.429 84.7114 46.6952 85.4032 46.8889L85.5649 46.3111ZM83.9932 45.6072C83.6299 45.3119 83.4641 44.9679 83.4641 44.56H82.8641C82.8641 45.1654 83.1249 45.6747 83.6149 46.0728L83.9932 45.6072ZM83.4641 44.56C83.4641 44.3037 83.5968 44.0704 83.9844 43.8651L83.7037 43.3349C83.1847 43.6096 82.8641 44.0163 82.8641 44.56H83.4641ZM83.9782 43.8683C84.4241 43.6454 84.9377 43.4938 85.5229 43.4175L85.4453 42.8225C84.8037 42.9062 84.224 43.0746 83.7099 43.3317L83.9782 43.8683ZM85.7841 43.12V32.8H85.1841V43.12H85.7841ZM85.7841 32.8C85.7841 32.7129 85.8056 32.7027 85.7962 32.7121C85.7868 32.7216 85.797 32.7 85.8841 32.7V32.1C85.7045 32.1 85.5147 32.1451 85.3719 32.2879C85.2292 32.4306 85.1841 32.6204 85.1841 32.8H85.7841ZM85.8841 32.7H90.5641V32.1H85.8841V32.7ZM90.5641 32.7C92.2094 32.7 93.4326 33.3133 94.2776 34.531L94.7705 34.189C93.8022 32.7934 92.3854 32.1 90.5641 32.1V32.7ZM94.2799 34.5344C95.168 35.7776 95.6241 37.3917 95.6241 39.4H96.2241C96.2241 37.3016 95.7468 35.5557 94.7682 34.1856L94.2799 34.5344ZM95.6241 39.4C95.6241 40.7431 95.3403 41.9334 94.7797 42.9782L95.3084 43.2618C95.9211 42.12 96.2241 40.8302 96.2241 39.4H95.6241ZM94.7771 42.9832C94.2404 44.031 93.4886 44.8716 92.5192 45.5094L92.8489 46.0106C93.9062 45.3151 94.7278 44.3956 95.3111 43.2568L94.7771 42.9832ZM92.4608 45.9604C93.5923 47.2204 94.4409 48.9579 94.9928 51.192L95.5753 51.048C95.0072 48.7487 94.1225 46.9129 92.9073 45.5596L92.4608 45.9604ZM94.9929 51.1921L97.0729 59.5921L97.6553 59.4479L95.5753 51.0479L94.9929 51.1921ZM97.0756 59.6024C97.0925 59.6615 97.0849 59.6797 97.0867 59.6738C97.0878 59.6701 97.0903 59.665 97.0937 59.6608C97.0968 59.6571 97.097 59.6584 97.0897 59.6628L97.3984 60.1772C97.5211 60.1036 97.6174 59.993 97.6614 59.8462C97.7032 59.7069 97.689 59.5652 97.6525 59.4376L97.0756 59.6024ZM97.1326 59.6415C97.0111 59.6901 96.9468 59.7 96.9241 59.7V60.3C97.0613 60.3 97.2103 60.2566 97.3555 60.1985L97.1326 59.6415ZM96.9241 59.7C96.8681 59.7 96.8528 59.6868 96.8515 59.6857C96.8492 59.6839 96.8305 59.6686 96.8151 59.6072L96.233 59.7528C96.271 59.9047 96.3456 60.0494 96.4767 60.1543C96.6087 60.2599 96.7667 60.3 96.9241 60.3V59.7ZM96.8153 59.6079L94.7353 51.2079L94.1529 51.3521L96.2329 59.7521L96.8153 59.6079ZM94.7357 51.2097C94.1947 48.9646 93.3497 47.205 92.1834 45.9553L91.7447 46.3647C92.8184 47.515 93.6267 49.1687 94.1524 51.3503L94.7357 51.2097ZM91.8299 45.8917C90.8079 46.4027 89.681 46.66 88.4441 46.66V47.26C89.7671 47.26 90.9869 46.984 92.0982 46.4283L91.8299 45.8917ZM88.4441 46.66C87.7116 46.66 87.0209 46.6077 86.3715 46.5038L86.2767 47.0962C86.9605 47.2057 87.6832 47.26 88.4441 47.26V46.66ZM86.0241 46.8V59.6H86.6241V46.8H86.0241ZM86.0241 59.6C86.0241 59.6793 86.0036 59.6859 86.0123 59.678C86.0155 59.675 85.9912 59.7 85.8841 59.7V60.3C86.0703 60.3 86.2659 60.2583 86.4159 60.122C86.5712 59.9807 86.6241 59.7873 86.6241 59.6H86.0241ZM90.5641 32.94H86.3241V33.54H90.5641V32.94ZM86.0241 33.24V43.08H86.6241V33.24H86.0241ZM86.3241 43.38C88.635 43.38 90.4911 44.0531 91.9199 45.3798L92.3282 44.9402C90.7703 43.4936 88.7598 42.78 86.3241 42.78V43.38ZM92.2851 45.4131C93.2095 44.8248 93.95 44.027 94.5063 43.0257L93.9818 42.7343C93.4714 43.653 92.7986 44.3751 91.963 44.9069L92.2851 45.4131ZM94.508 43.0227C95.0691 41.9846 95.3441 40.7738 95.3441 39.4H94.7441C94.7441 40.6929 94.4857 41.8021 93.9801 42.7373L94.508 43.0227ZM95.3441 39.4C95.3441 37.6255 94.9754 36.1144 94.2198 34.8831L93.7084 35.1969C94.3928 36.3122 94.7441 37.7078 94.7441 39.4H95.3441ZM94.2213 34.8857C93.4406 33.5844 92.2028 32.94 90.5641 32.94V33.54C92.0187 33.54 93.0476 34.0956 93.7068 35.1943L94.2213 34.8857ZM88.4441 46.5C89.5237 46.5 90.5385 46.2921 91.4852 45.8745L91.243 45.3255C90.3763 45.7079 89.4445 45.9 88.4441 45.9V46.5ZM91.557 45.3703C90.161 44.1976 88.4091 43.62 86.3241 43.62V44.22C88.2923 44.22 89.9005 44.7624 91.1711 45.8297L91.557 45.3703ZM86.0241 43.92V45.96H86.6241V43.92H86.0241ZM86.2612 46.2533C87.0256 46.4171 87.7535 46.5 88.4441 46.5V45.9C87.8013 45.9 87.1158 45.8229 86.3869 45.6667L86.2612 46.2533ZM83.7041 44.6C83.7041 44.9706 83.9163 45.2648 84.232 45.4858L84.5761 44.9942C84.3585 44.8419 84.3041 44.7094 84.3041 44.6H83.7041ZM84.243 45.4931C84.5639 45.6973 84.9495 45.8672 85.3946 46.0063L85.5735 45.4337C85.1653 45.3061 84.8309 45.156 84.5651 44.9869L84.243 45.4931ZM85.7841 45.72V43.96H85.1841V45.72H85.7841ZM85.4641 43.6607C85.0435 43.6887 84.6677 43.7594 84.3415 43.8781L84.5466 44.4419C84.8071 44.3472 85.1246 44.2846 85.504 44.2593L85.4641 43.6607ZM84.3415 43.8781C84.0192 43.9953 83.7041 44.213 83.7041 44.6H84.3041C84.3041 44.5954 84.3023 44.5861 84.3262 44.5621C84.3569 44.5314 84.4222 44.4872 84.5466 44.4419L84.3415 43.8781ZM101.879 56.56L102.145 56.42L101.879 56.56ZM101.879 35.84L102.145 35.98L101.879 35.84ZM109.519 32.56L109.421 32.8435L109.425 32.8446L109.519 32.56ZM111.439 33.64L111.244 33.8678L111.252 33.8741L111.259 33.88L111.439 33.64ZM110.879 34.28L111.092 34.0679L111.082 34.0588L111.073 34.0505L110.879 34.28ZM109.199 33.36L109.101 33.6436L109.112 33.647L109.199 33.36ZM102.519 36.48L102.251 36.3458L102.25 36.3484L102.519 36.48ZM102.519 55.92L102.25 56.0517L102.251 56.0542L102.519 55.92ZM109.199 59.08L109.287 59.3672L109.298 59.3633L109.199 59.08ZM110.879 58.12L111.073 58.3495L111.082 58.3412L111.092 58.3321L110.879 58.12ZM111.439 58.76L111.259 58.52L111.252 58.5259L111.244 58.5322L111.439 58.76ZM109.519 59.84L109.424 59.5554L109.421 59.5565L109.519 59.84ZM107.359 59.9C106.227 59.9 105.235 59.6114 104.375 59.0401C103.513 58.4673 102.767 57.5999 102.145 56.42L101.614 56.7C102.272 57.9467 103.079 58.8993 104.043 59.5399C105.01 60.1819 106.119 60.5 107.359 60.5V59.9ZM102.145 56.42C100.897 54.0554 100.259 50.6716 100.259 46.24H99.6594C99.6594 50.715 100.301 54.2113 101.614 56.7L102.145 56.42ZM100.259 46.24C100.259 41.7543 100.898 38.3442 102.145 35.98L101.614 35.7C100.301 38.1891 99.6594 41.7123 99.6594 46.24H100.259ZM102.145 35.98C102.767 34.8001 103.513 33.9327 104.375 33.3599C105.235 32.7886 106.227 32.5 107.359 32.5V31.9C106.119 31.9 105.01 32.2181 104.043 32.8601C103.079 33.5007 102.272 34.4533 101.614 35.7L102.145 35.98ZM107.359 32.5C108.073 32.5 108.76 32.6146 109.421 32.8435L109.618 32.2765C108.892 32.0254 108.139 31.9 107.359 31.9V32.5ZM109.425 32.8446C110.109 33.0727 110.714 33.4138 111.244 33.8678L111.635 33.4122C111.044 32.9062 110.37 32.5273 109.614 32.2754L109.425 32.8446ZM111.259 33.88C111.291 33.9033 111.299 33.9211 111.299 33.96H111.899C111.899 33.7322 111.802 33.5367 111.619 33.4L111.259 33.88ZM111.299 33.96C111.299 34.0092 111.293 34.0401 111.287 34.0576C111.282 34.0737 111.277 34.0778 111.277 34.0779C111.277 34.0779 111.273 34.0825 111.257 34.0879C111.239 34.0937 111.209 34.1 111.159 34.1V34.7C111.352 34.7 111.552 34.6516 111.702 34.5021C111.851 34.3527 111.899 34.1529 111.899 33.96H111.299ZM111.159 34.1C111.137 34.1 111.119 34.0954 111.092 34.0679L110.667 34.4921C110.8 34.6246 110.968 34.7 111.159 34.7V34.1ZM111.073 34.0505C110.536 33.5986 109.94 33.2719 109.287 33.073L109.112 33.647C109.685 33.8215 110.209 34.1081 110.686 34.5095L111.073 34.0505ZM109.298 33.0767C108.655 32.8529 108.008 32.74 107.359 32.74V33.34C107.937 33.34 108.517 33.4404 109.101 33.6433L109.298 33.0767ZM107.359 32.74C105.137 32.74 103.434 33.9793 102.251 36.3458L102.788 36.6142C103.898 34.394 105.422 33.34 107.359 33.34V32.74ZM102.25 36.3484C101.101 38.701 100.539 42.0072 100.539 46.24H101.139C101.139 42.0462 101.698 38.8456 102.789 36.6117L102.25 36.3484ZM100.539 46.24C100.539 50.4202 101.101 53.6994 102.25 56.0517L102.789 55.7883C101.698 53.554 101.139 50.3798 101.139 46.24H100.539ZM102.251 56.0542C103.434 58.4207 105.137 59.66 107.359 59.66V59.06C105.422 59.06 103.898 58.006 102.788 55.7858L102.251 56.0542ZM107.359 59.66C108.004 59.66 108.646 59.5619 109.287 59.367L109.112 58.793C108.526 58.9714 107.942 59.06 107.359 59.06V59.66ZM109.298 59.3633C109.947 59.1377 110.539 58.7992 111.073 58.3495L110.686 57.8905C110.207 58.2941 109.679 58.5956 109.101 58.7966L109.298 59.3633ZM111.092 58.3321C111.119 58.3046 111.137 58.3 111.159 58.3V57.7C110.968 57.7 110.8 57.7754 110.667 57.9079L111.092 58.3321ZM111.159 58.3C111.209 58.3 111.239 58.3063 111.257 58.3121C111.273 58.3175 111.277 58.3221 111.277 58.3221C111.277 58.3222 111.282 58.3263 111.287 58.3424C111.293 58.3599 111.299 58.3908 111.299 58.44H111.899C111.899 58.2471 111.851 58.0473 111.702 57.8979C111.552 57.7484 111.352 57.7 111.159 57.7V58.3ZM111.299 58.44C111.299 58.4789 111.291 58.4967 111.259 58.52L111.619 59C111.802 58.8633 111.899 58.6678 111.899 58.44H111.299ZM111.244 58.5322C110.714 58.9862 110.109 59.3273 109.425 59.5554L109.614 60.1246C110.37 59.8727 111.044 59.4938 111.635 58.9878L111.244 58.5322ZM109.421 59.5565C108.76 59.7854 108.073 59.9 107.359 59.9V60.5C108.139 60.5 108.892 60.3746 109.618 60.1235L109.421 59.5565ZM116.248 44.76H115.948V45.06H116.248V44.76ZM126.768 44.76V45.06H127.068V44.76H126.768ZM126.768 45.6H127.068V45.3H126.768V45.6ZM116.248 45.6V45.3H115.948V45.6H116.248ZM115.808 59.7C115.721 59.7 115.711 59.6784 115.72 59.6879C115.729 59.6973 115.708 59.6871 115.708 59.6H115.108C115.108 59.7796 115.153 59.9694 115.296 60.1121C115.438 60.2549 115.628 60.3 115.808 60.3V59.7ZM115.708 59.6V32.8H115.108V59.6H115.708ZM115.708 32.8C115.708 32.7129 115.729 32.7027 115.72 32.7121C115.711 32.7216 115.721 32.7 115.808 32.7V32.1C115.628 32.1 115.438 32.1451 115.296 32.2879C115.153 32.4306 115.108 32.6204 115.108 32.8H115.708ZM115.808 32.7C115.915 32.7 115.939 32.725 115.936 32.722C115.927 32.7141 115.948 32.7207 115.948 32.8H116.548C116.548 32.6127 116.495 32.4193 116.34 32.278C116.19 32.1417 115.994 32.1 115.808 32.1V32.7ZM115.948 32.8V44.76H116.548V32.8H115.948ZM116.248 45.06H126.768V44.46H116.248V45.06ZM127.068 44.76V32.8H126.468V44.76H127.068ZM127.068 32.8C127.068 32.7129 127.089 32.7027 127.08 32.7121C127.071 32.7216 127.081 32.7 127.168 32.7V32.1C126.988 32.1 126.798 32.1451 126.656 32.2879C126.513 32.4306 126.468 32.6204 126.468 32.8H127.068ZM127.168 32.7C127.275 32.7 127.299 32.725 127.296 32.722C127.287 32.7141 127.308 32.7207 127.308 32.8H127.908C127.908 32.6127 127.855 32.4193 127.7 32.278C127.55 32.1417 127.354 32.1 127.168 32.1V32.7ZM127.308 32.8V59.6H127.908V32.8H127.308ZM127.308 59.6C127.308 59.6793 127.287 59.6859 127.296 59.678C127.299 59.675 127.275 59.7 127.168 59.7V60.3C127.354 60.3 127.55 60.2583 127.7 60.122C127.855 59.9807 127.908 59.7873 127.908 59.6H127.308ZM127.168 59.7C127.081 59.7 127.071 59.6784 127.08 59.6879C127.089 59.6973 127.068 59.6871 127.068 59.6H126.468C126.468 59.7796 126.513 59.9694 126.656 60.1121C126.798 60.2549 126.988 60.3 127.168 60.3V59.7ZM127.068 59.6V45.6H126.468V59.6H127.068ZM126.768 45.3H116.248V45.9H126.768V45.3ZM115.948 45.6V59.6H116.548V45.6H115.948ZM115.948 59.6C115.948 59.6793 115.927 59.6859 115.936 59.678C115.939 59.675 115.915 59.7 115.808 59.7V60.3C115.994 60.3 116.19 60.2583 116.34 60.122C116.495 59.9807 116.548 59.7873 116.548 59.6H115.948Z" fill="#76857E" mask="url(#path-2-outside-1_2_72)"/>
</svg>
